<?xml version="1.0" encoding="UTF-8" standalone="no"?>
<!DOCTYPE svg PUBLIC "-//W3C//DTD SVG 1.1//EN"
 "http://www.w3.org/Graphics/SVG/1.1/DTD/svg11.dtd">
<!-- Generated by graphviz version 14.1.2 (0)
 -->
<!-- Title: G Pages: 1 -->
<svg width="1239pt" height="544pt"
 viewBox="0.00 0.00 1239.00 544.00" xmlns="http://www.w3.org/2000/svg" xmlns:xlink="http://www.w3.org/1999/xlink">
<g id="graph0" class="graph" transform="scale(1 1) rotate(0) translate(4 540)">
<title>G</title>
<polygon fill="#eeeeee" stroke="none" points="-4,4 -4,-540 1235,-540 1235,4 -4,4"/>
<g id="clust1" class="cluster">
<title>cluster_inputs</title>
<polygon fill="#eeeeee" stroke="black" stroke-dasharray="5,2" points="8,-450.5 8,-528 1223,-528 1223,-450.5 8,-450.5"/>
<text xml:space="preserve" text-anchor="middle" x="1168.5" y="-457.7" font-family="Times,serif" font-size="14.00">Workflow Inputs</text>
</g>
<g id="clust2" class="cluster">
<title>cluster_outputs</title>
<polygon fill="#eeeeee" stroke="black" stroke-dasharray="5,2" points="73,-8 73,-85.5 972,-85.5 972,-8 73,-8"/>
<text xml:space="preserve" text-anchor="middle" x="913" y="-15.2" font-family="Times,serif" font-size="14.00">Workflow Outputs</text>
</g>
<!-- convert&#45;weather -->
<g id="node1" class="node">
<title>convert&#45;weather</title>
<polygon fill="lightgoldenrodyellow" stroke="black" points="73.12,-187 73.12,-223 176.88,-223 176.88,-187 73.12,-187"/>
<text xml:space="preserve" text-anchor="middle" x="125" y="-199.95" font-family="Times,serif" font-size="14.00">convert&#45;weather</text>
</g>
<!-- assemble&#45;data -->
<g id="node2" class="node">
<title>assemble&#45;data</title>
<polygon fill="lightgoldenrodyellow" stroke="black" points="253.38,-114 253.38,-150 346.62,-150 346.62,-114 253.38,-114"/>
<text xml:space="preserve" text-anchor="middle" x="300" y="-126.95" font-family="Times,serif" font-size="14.00">assemble&#45;data</text>
</g>
<!-- convert&#45;weather&#45;&gt;assemble&#45;data -->
<g id="edge1" class="edge">
<title>convert&#45;weather&#45;&gt;assemble&#45;data</title>
<path fill="none" stroke="black" d="M167.81,-186.63C191.54,-177 221.26,-164.95 246.51,-154.7"/>
<polygon fill="black" stroke="black" points="247.67,-158.01 255.62,-151 245.04,-151.52 247.67,-158.01"/>
</g>
<!-- weather_data -->
<g id="node28" class="node">
<title>weather_data</title>
<polygon fill="#94ddf4" stroke="black" points="81,-41 81,-77 169,-77 169,-41 81,-41"/>
<text xml:space="preserve" text-anchor="middle" x="125" y="-53.95" font-family="Times,serif" font-size="14.00">weather_data</text>
</g>
<!-- convert&#45;weather&#45;&gt;weather_data -->
<g id="edge30" class="edge">
<title>convert&#45;weather&#45;&gt;weather_data</title>
<path fill="none" stroke="black" d="M125,-186.63C125,-162.3 125,-117.8 125,-88.56"/>
<polygon fill="black" stroke="black" points="128.5,-88.94 125,-78.94 121.5,-88.94 128.5,-88.94"/>
</g>
<!-- integrated_dataset -->
<g id="node23" class="node">
<title>integrated_dataset</title>
<polygon fill="#94ddf4" stroke="black" points="269.88,-41 269.88,-77 384.12,-77 384.12,-41 269.88,-41"/>
<text xml:space="preserve" text-anchor="middle" x="327" y="-53.95" font-family="Times,serif" font-size="14.00">integrated_dataset</text>
</g>
<!-- assemble&#45;data&#45;&gt;integrated_dataset -->
<g id="edge25" class="edge">
<title>assemble&#45;data&#45;&gt;integrated_dataset</title>
<path fill="none" stroke="black" d="M306.54,-113.81C309.52,-105.96 313.13,-96.47 316.48,-87.66"/>
<polygon fill="black" stroke="black" points="319.7,-89.03 319.99,-78.44 313.16,-86.55 319.7,-89.03"/>
</g>
<!-- get&#45;soil -->
<g id="node3" class="node">
<title>get&#45;soil</title>
<polygon fill="lightgoldenrodyellow" stroke="black" points="195.75,-187 195.75,-223 252.25,-223 252.25,-187 195.75,-187"/>
<text xml:space="preserve" text-anchor="middle" x="224" y="-199.95" font-family="Times,serif" font-size="14.00">get&#45;soil</text>
</g>
<!-- get&#45;soil&#45;&gt;assemble&#45;data -->
<g id="edge2" class="edge">
<title>get&#45;soil&#45;&gt;assemble&#45;data</title>
<path fill="none" stroke="black" d="M242.4,-186.81C251.66,-178.16 263.07,-167.5 273.28,-157.96"/>
<polygon fill="black" stroke="black" points="275.48,-160.69 280.4,-151.31 270.71,-155.58 275.48,-160.69"/>
</g>
<!-- soil_data -->
<g id="node27" class="node">
<title>soil_data</title>
<polygon fill="#94ddf4" stroke="black" points="186.62,-41 186.62,-77 251.38,-77 251.38,-41 186.62,-41"/>
<text xml:space="preserve" text-anchor="middle" x="219" y="-53.95" font-family="Times,serif" font-size="14.00">soil_data</text>
</g>
<!-- get&#45;soil&#45;&gt;soil_data -->
<g id="edge29" class="edge">
<title>get&#45;soil&#45;&gt;soil_data</title>
<path fill="none" stroke="black" d="M223.4,-186.63C222.55,-162.3 221.01,-117.8 219.99,-88.56"/>
<polygon fill="black" stroke="black" points="223.5,-88.82 219.66,-78.94 216.51,-89.06 223.5,-88.82"/>
</g>
<!-- convert&#45;phenology -->
<g id="node4" class="node">
<title>convert&#45;phenology</title>
<polygon fill="lightgoldenrodyellow" stroke="black" points="723,-187 723,-223 841,-223 841,-187 723,-187"/>
<text xml:space="preserve" text-anchor="middle" x="782" y="-199.95" font-family="Times,serif" font-size="14.00">convert&#45;phenology</text>
</g>
<!-- convert&#45;phenology&#45;&gt;assemble&#45;data -->
<g id="edge3" class="edge">
<title>convert&#45;phenology&#45;&gt;assemble&#45;data</title>
<path fill="none" stroke="black" d="M722.9,-195.29C629.96,-181.6 450.76,-155.21 358.31,-141.59"/>
<polygon fill="black" stroke="black" points="358.84,-138.13 348.44,-140.14 357.82,-145.06 358.84,-138.13"/>
</g>
<!-- growth_stage_dates -->
<g id="node22" class="node">
<title>growth_stage_dates</title>
<polygon fill="#94ddf4" stroke="black" points="720.38,-41 720.38,-77 843.62,-77 843.62,-41 720.38,-41"/>
<text xml:space="preserve" text-anchor="middle" x="782" y="-53.95" font-family="Times,serif" font-size="14.00">growth_stage_dates</text>
</g>
<!-- convert&#45;phenology&#45;&gt;growth_stage_dates -->
<g id="edge24" class="edge">
<title>convert&#45;phenology&#45;&gt;growth_stage_dates</title>
<path fill="none" stroke="black" d="M782,-186.63C782,-162.3 782,-117.8 782,-88.56"/>
<polygon fill="black" stroke="black" points="785.5,-88.94 782,-78.94 778.5,-88.94 785.5,-88.94"/>
</g>
<!-- lookup&#45;gs&#45;dates -->
<g id="node5" class="node">
<title>lookup&#45;gs&#45;dates</title>
<polygon fill="lightgoldenrodyellow" stroke="black" points="734.88,-260 734.88,-296 837.12,-296 837.12,-260 734.88,-260"/>
<text xml:space="preserve" text-anchor="middle" x="786" y="-272.95" font-family="Times,serif" font-size="14.00">lookup&#45;gs&#45;dates</text>
</g>
<!-- lookup&#45;gs&#45;dates&#45;&gt;convert&#45;phenology -->
<g id="edge4" class="edge">
<title>lookup&#45;gs&#45;dates&#45;&gt;convert&#45;phenology</title>
<path fill="none" stroke="black" d="M785.03,-259.81C784.6,-252.14 784.08,-242.89 783.59,-234.24"/>
<polygon fill="black" stroke="black" points="787.1,-234.33 783.04,-224.54 780.11,-234.72 787.1,-234.33"/>
</g>
<!-- get&#45;weather -->
<g id="node6" class="node">
<title>get&#45;weather</title>
<polygon fill="lightgoldenrodyellow" stroke="black" points="79.12,-406 79.12,-442 158.88,-442 158.88,-406 79.12,-406"/>
<text xml:space="preserve" text-anchor="middle" x="119" y="-418.95" font-family="Times,serif" font-size="14.00">get&#45;weather</text>
</g>
<!-- get&#45;weather&#45;&gt;convert&#45;weather -->
<g id="edge5" class="edge">
<title>get&#45;weather&#45;&gt;convert&#45;weather</title>
<path fill="none" stroke="black" d="M119.48,-405.61C120.51,-368.39 122.93,-280.69 124.2,-234.93"/>
<polygon fill="black" stroke="black" points="127.7,-235.08 124.48,-224.99 120.7,-234.89 127.7,-235.08"/>
</g>
<!-- phenology&#45;analyzer -->
<g id="node7" class="node">
<title>phenology&#45;analyzer</title>
<polygon fill="lightgoldenrodyellow" stroke="black" points="555.38,-333 555.38,-369 678.62,-369 678.62,-333 555.38,-333"/>
<text xml:space="preserve" text-anchor="middle" x="617" y="-345.95" font-family="Times,serif" font-size="14.00">phenology&#45;analyzer</text>
</g>
<!-- phenology&#45;analyzer&#45;&gt;lookup&#45;gs&#45;dates -->
<g id="edge6" class="edge">
<title>phenology&#45;analyzer&#45;&gt;lookup&#45;gs&#45;dates</title>
<path fill="none" stroke="black" d="M658.34,-332.63C681.15,-323.05 709.7,-311.05 734.02,-300.84"/>
<polygon fill="black" stroke="black" points="735.24,-304.12 743.1,-297.02 732.53,-297.67 735.24,-304.12"/>
</g>
<!-- phenology_results_csv -->
<g id="node25" class="node">
<title>phenology_results_csv</title>
<polygon fill="#94ddf4" stroke="black" points="402.12,-41 402.12,-77 541.88,-77 541.88,-41 402.12,-41"/>
<text xml:space="preserve" text-anchor="middle" x="472" y="-53.95" font-family="Times,serif" font-size="14.00">phenology_results_csv</text>
</g>
<!-- phenology&#45;analyzer&#45;&gt;phenology_results_csv -->
<g id="edge27" class="edge">
<title>phenology&#45;analyzer&#45;&gt;phenology_results_csv</title>
<path fill="none" stroke="black" d="M608.36,-332.73C584.09,-284.17 515.08,-146.17 485.61,-87.23"/>
<polygon fill="black" stroke="black" points="488.87,-85.91 481.27,-78.54 482.61,-89.05 488.87,-85.91"/>
</g>
<!-- phenology_results_png -->
<g id="node26" class="node">
<title>phenology_results_png</title>
<polygon fill="#94ddf4" stroke="black" points="560,-41 560,-77 702,-77 702,-41 560,-41"/>
<text xml:space="preserve" text-anchor="middle" x="631" y="-53.95" font-family="Times,serif" font-size="14.00">phenology_results_png</text>
</g>
<!-- phenology&#45;analyzer&#45;&gt;phenology_results_png -->
<g id="edge28" class="edge">
<title>phenology&#45;analyzer&#45;&gt;phenology_results_png</title>
<path fill="none" stroke="black" d="M617.83,-332.73C620.16,-284.47 626.76,-147.88 629.63,-88.34"/>
<polygon fill="black" stroke="black" points="633.11,-88.85 630.1,-78.69 626.12,-88.51 633.11,-88.85"/>
</g>
<!-- fetch&#45;ndvi -->
<g id="node8" class="node">
<title>fetch&#45;ndvi</title>
<polygon fill="lightgoldenrodyellow" stroke="black" points="877.25,-406 877.25,-442 948.75,-442 948.75,-406 877.25,-406"/>
<text xml:space="preserve" text-anchor="middle" x="913" y="-418.95" font-family="Times,serif" font-size="14.00">fetch&#45;ndvi</text>
</g>
<!-- fetch&#45;ndvi&#45;&gt;phenology&#45;analyzer -->
<g id="edge7" class="edge">
<title>fetch&#45;ndvi&#45;&gt;phenology&#45;analyzer</title>
<path fill="none" stroke="black" d="M877,-414.36C830.73,-403.27 749.29,-383.73 689.86,-369.48"/>
<polygon fill="black" stroke="black" points="691.04,-366.16 680.5,-367.23 689.41,-372.97 691.04,-366.16"/>
</g>
<!-- ndvi_timeseries -->
<g id="node24" class="node">
<title>ndvi_timeseries</title>
<polygon fill="#94ddf4" stroke="black" points="861.88,-41 861.88,-77 964.12,-77 964.12,-41 861.88,-41"/>
<text xml:space="preserve" text-anchor="middle" x="913" y="-53.95" font-family="Times,serif" font-size="14.00">ndvi_timeseries</text>
</g>
<!-- fetch&#45;ndvi&#45;&gt;ndvi_timeseries -->
<g id="edge26" class="edge">
<title>fetch&#45;ndvi&#45;&gt;ndvi_timeseries</title>
<path fill="none" stroke="black" d="M913,-405.71C913,-378.68 913,-324.75 913,-279 913,-279 913,-279 913,-204 913,-163.97 913,-117.68 913,-88.62"/>
<polygon fill="black" stroke="black" points="916.5,-88.8 913,-78.8 909.5,-88.8 916.5,-88.8"/>
</g>
<!-- geojson -->
<g id="node9" class="node">
<title>geojson</title>
<polygon fill="#94ddf4" stroke="black" points="271,-483.5 271,-519.5 329,-519.5 329,-483.5 271,-483.5"/>
<text xml:space="preserve" text-anchor="middle" x="300" y="-496.45" font-family="Times,serif" font-size="14.00">geojson</text>
</g>
<!-- geojson&#45;&gt;assemble&#45;data -->
<g id="edge8" class="edge">
<title>geojson&#45;&gt;assemble&#45;data</title>
<path fill="none" stroke="black" d="M300,-483.12C300,-455.4 300,-399.44 300,-352 300,-352 300,-352 300,-277 300,-236.97 300,-190.68 300,-161.62"/>
<polygon fill="black" stroke="black" points="303.5,-161.8 300,-151.8 296.5,-161.8 303.5,-161.8"/>
</g>
<!-- geojson&#45;&gt;phenology&#45;analyzer -->
<g id="edge9" class="edge">
<title>geojson&#45;&gt;phenology&#45;analyzer</title>
<path fill="none" stroke="black" d="M309.62,-483.12C316.34,-472.41 326.2,-459.11 338,-450.5 399.8,-405.43 484.1,-379.46 543.81,-365.63"/>
<polygon fill="black" stroke="black" points="544.58,-369.04 553.57,-363.43 543.04,-362.21 544.58,-369.04"/>
</g>
<!-- ndvi_file -->
<g id="node10" class="node">
<title>ndvi_file</title>
<polygon fill="#94ddf4" stroke="black" points="854.62,-483.5 854.62,-519.5 919.38,-519.5 919.38,-483.5 854.62,-483.5"/>
<text xml:space="preserve" text-anchor="middle" x="887" y="-496.45" font-family="Times,serif" font-size="14.00">ndvi_file</text>
</g>
<!-- ndvi_file&#45;&gt;fetch&#45;ndvi -->
<g id="edge10" class="edge">
<title>ndvi_file&#45;&gt;fetch&#45;ndvi</title>
<path fill="none" stroke="black" d="M892.9,-483.37C895.97,-474.45 899.8,-463.33 903.29,-453.19"/>
<polygon fill="black" stroke="black" points="906.59,-454.35 906.54,-443.76 899.98,-452.07 906.59,-454.35"/>
</g>
<!-- sensorthingsapi_url -->
<g id="node11" class="node">
<title>sensorthingsapi_url</title>
<polygon fill="#94ddf4" stroke="black" points="937.12,-483.5 937.12,-519.5 1058.88,-519.5 1058.88,-483.5 937.12,-483.5"/>
<text xml:space="preserve" text-anchor="middle" x="998" y="-496.45" font-family="Times,serif" font-size="14.00">sensorthingsapi_url</text>
</g>
<!-- sensorthingsapi_url&#45;&gt;fetch&#45;ndvi -->
<g id="edge11" class="edge">
<title>sensorthingsapi_url&#45;&gt;fetch&#45;ndvi</title>
<path fill="none" stroke="black" d="M978.71,-483.37C967.6,-473.5 953.43,-460.91 941.09,-449.95"/>
<polygon fill="black" stroke="black" points="943.44,-447.35 933.64,-443.33 938.79,-452.59 943.44,-447.35"/>
</g>
<!-- trial_id -->
<g id="node12" class="node">
<title>trial_id</title>
<polygon fill="#94ddf4" stroke="black" points="1076.5,-483.5 1076.5,-519.5 1131.5,-519.5 1131.5,-483.5 1076.5,-483.5"/>
<text xml:space="preserve" text-anchor="middle" x="1104" y="-496.45" font-family="Times,serif" font-size="14.00">trial_id</text>
</g>
<!-- trial_id&#45;&gt;fetch&#45;ndvi -->
<g id="edge12" class="edge">
<title>trial_id&#45;&gt;fetch&#45;ndvi</title>
<path fill="none" stroke="black" d="M1096.1,-483.38C1090.03,-472.2 1080.55,-458.28 1068,-450.5 1050.38,-439.58 999.05,-432.64 960.24,-428.8"/>
<polygon fill="black" stroke="black" points="960.95,-425.35 950.67,-427.9 960.29,-432.32 960.95,-425.35"/>
</g>
<!-- latitude -->
<g id="node13" class="node">
<title>latitude</title>
<polygon fill="#94ddf4" stroke="black" points="110.75,-483.5 110.75,-519.5 167.25,-519.5 167.25,-483.5 110.75,-483.5"/>
<text xml:space="preserve" text-anchor="middle" x="139" y="-496.45" font-family="Times,serif" font-size="14.00">latitude</text>
</g>
<!-- latitude&#45;&gt;get&#45;soil -->
<g id="edge13" class="edge">
<title>latitude&#45;&gt;get&#45;soil</title>
<path fill="none" stroke="black" d="M148.98,-483.2C155.15,-471.91 162.85,-456.68 168,-442.5 194.43,-369.65 211.76,-279.6 219.44,-234.53"/>
<polygon fill="black" stroke="black" points="222.87,-235.25 221.07,-224.81 215.97,-234.1 222.87,-235.25"/>
</g>
<!-- latitude&#45;&gt;get&#45;weather -->
<g id="edge14" class="edge">
<title>latitude&#45;&gt;get&#45;weather</title>
<path fill="none" stroke="black" d="M134.46,-483.37C132.1,-474.45 129.15,-463.33 126.47,-453.19"/>
<polygon fill="black" stroke="black" points="129.92,-452.56 123.98,-443.79 123.15,-454.35 129.92,-452.56"/>
</g>
<!-- longitude -->
<g id="node14" class="node">
<title>longitude</title>
<polygon fill="#94ddf4" stroke="black" points="185.5,-483.5 185.5,-519.5 252.5,-519.5 252.5,-483.5 185.5,-483.5"/>
<text xml:space="preserve" text-anchor="middle" x="219" y="-496.45" font-family="Times,serif" font-size="14.00">longitude</text>
</g>
<!-- longitude&#45;&gt;get&#45;soil -->
<g id="edge15" class="edge">
<title>longitude&#45;&gt;get&#45;soil</title>
<path fill="none" stroke="black" d="M219.29,-483.39C220.12,-434.7 222.49,-294.95 223.52,-234.47"/>
<polygon fill="black" stroke="black" points="227.01,-234.73 223.68,-224.67 220.01,-234.61 227.01,-234.73"/>
</g>
<!-- longitude&#45;&gt;get&#45;weather -->
<g id="edge16" class="edge">
<title>longitude&#45;&gt;get&#45;weather</title>
<path fill="none" stroke="black" d="M207.04,-483.03C199.17,-472.54 188.12,-459.53 176,-450.5 173.84,-448.89 171.56,-447.35 169.2,-445.88"/>
<polygon fill="black" stroke="black" points="170.96,-442.85 160.52,-441.01 167.53,-448.96 170.96,-442.85"/>
</g>
<!-- season_file -->
<g id="node15" class="node">
<title>season_file</title>
<polygon fill="#94ddf4" stroke="black" points="15.62,-483.5 15.62,-519.5 92.38,-519.5 92.38,-483.5 15.62,-483.5"/>
<text xml:space="preserve" text-anchor="middle" x="54" y="-496.45" font-family="Times,serif" font-size="14.00">season_file</text>
</g>
<!-- season_file&#45;&gt;get&#45;weather -->
<g id="edge17" class="edge">
<title>season_file&#45;&gt;get&#45;weather</title>
<path fill="none" stroke="black" d="M68.75,-483.37C77,-473.78 87.46,-461.64 96.69,-450.91"/>
<polygon fill="black" stroke="black" points="99.22,-453.33 103.1,-443.47 93.92,-448.77 99.22,-453.33"/>
</g>
<!-- gs_codes -->
<g id="node16" class="node">
<title>gs_codes</title>
<polygon fill="#94ddf4" stroke="black" points="1149.25,-483.5 1149.25,-519.5 1214.75,-519.5 1214.75,-483.5 1149.25,-483.5"/>
<text xml:space="preserve" text-anchor="middle" x="1182" y="-496.45" font-family="Times,serif" font-size="14.00">gs_codes</text>
</g>
<!-- gs_codes&#45;&gt;lookup&#45;gs&#45;dates -->
<g id="edge18" class="edge">
<title>gs_codes&#45;&gt;lookup&#45;gs&#45;dates</title>
<path fill="none" stroke="black" d="M1170.66,-483.12C1163.18,-472.67 1152.64,-459.67 1141,-450.5 1049.51,-378.46 922.83,-326.43 848.15,-299.63"/>
<polygon fill="black" stroke="black" points="849.53,-296.4 838.94,-296.36 847.2,-303 849.53,-296.4"/>
</g>
<!-- gs_scale -->
<g id="node17" class="node">
<title>gs_scale</title>
<polygon fill="#94ddf4" stroke="black" points="775.12,-483.5 775.12,-519.5 836.88,-519.5 836.88,-483.5 775.12,-483.5"/>
<text xml:space="preserve" text-anchor="middle" x="806" y="-496.45" font-family="Times,serif" font-size="14.00">gs_scale</text>
</g>
<!-- gs_scale&#45;&gt;lookup&#45;gs&#45;dates -->
<g id="edge19" class="edge">
<title>gs_scale&#45;&gt;lookup&#45;gs&#45;dates</title>
<path fill="none" stroke="black" d="M804.43,-483.12C801,-445.11 792.8,-354.28 788.59,-307.67"/>
<polygon fill="black" stroke="black" points="792.08,-307.45 787.7,-297.81 785.11,-308.08 792.08,-307.45"/>
</g>
<!-- harvest_date -->
<g id="node18" class="node">
<title>harvest_date</title>
<polygon fill="#94ddf4" stroke="black" points="476.88,-483.5 476.88,-519.5 561.12,-519.5 561.12,-483.5 476.88,-483.5"/>
<text xml:space="preserve" text-anchor="middle" x="519" y="-496.45" font-family="Times,serif" font-size="14.00">harvest_date</text>
</g>
<!-- harvest_date&#45;&gt;phenology&#45;analyzer -->
<g id="edge20" class="edge">
<title>harvest_date&#45;&gt;phenology&#45;analyzer</title>
<path fill="none" stroke="black" d="M530.43,-483.17C547.4,-457.47 579.38,-409 599.36,-378.73"/>
<polygon fill="black" stroke="black" points="602.22,-380.75 604.81,-370.48 596.38,-376.9 602.22,-380.75"/>
</g>
<!-- results_csv -->
<g id="node19" class="node">
<title>results_csv</title>
<polygon fill="#94ddf4" stroke="black" points="579,-483.5 579,-519.5 655,-519.5 655,-483.5 579,-483.5"/>
<text xml:space="preserve" text-anchor="middle" x="617" y="-496.45" font-family="Times,serif" font-size="14.00">results_csv</text>
</g>
<!-- results_csv&#45;&gt;phenology&#45;analyzer -->
<g id="edge21" class="edge">
<title>results_csv&#45;&gt;phenology&#45;analyzer</title>
<path fill="none" stroke="black" d="M617,-483.17C617,-458.03 617,-411.1 617,-380.73"/>
<polygon fill="black" stroke="black" points="620.5,-380.73 617,-370.73 613.5,-380.73 620.5,-380.73"/>
</g>
<!-- sowing_date -->
<g id="node20" class="node">
<title>sowing_date</title>
<polygon fill="#94ddf4" stroke="black" points="672.88,-483.5 672.88,-519.5 757.12,-519.5 757.12,-483.5 672.88,-483.5"/>
<text xml:space="preserve" text-anchor="middle" x="715" y="-496.45" font-family="Times,serif" font-size="14.00">sowing_date</text>
</g>
<!-- sowing_date&#45;&gt;phenology&#45;analyzer -->
<g id="edge22" class="edge">
<title>sowing_date&#45;&gt;phenology&#45;analyzer</title>
<path fill="none" stroke="black" d="M703.57,-483.17C686.6,-457.47 654.62,-409 634.64,-378.73"/>
<polygon fill="black" stroke="black" points="637.62,-376.9 629.19,-370.48 631.78,-380.75 637.62,-376.9"/>
</g>
<!-- visualization_png -->
<g id="node21" class="node">
<title>visualization_png</title>
<polygon fill="#94ddf4" stroke="black" points="347,-483.5 347,-519.5 459,-519.5 459,-483.5 347,-483.5"/>
<text xml:space="preserve" text-anchor="middle" x="403" y="-496.45" font-family="Times,serif" font-size="14.00">visualization_png</text>
</g>
<!-- visualization_png&#45;&gt;phenology&#45;analyzer -->
<g id="edge23" class="edge">
<title>visualization_png&#45;&gt;phenology&#45;analyzer</title>
<path fill="none" stroke="black" d="M424.67,-483.21C437.17,-473.39 453.28,-461 468,-450.5 505.46,-423.76 549.58,-394.91 580.03,-375.39"/>
<polygon fill="black" stroke="black" points="581.6,-378.55 588.14,-370.21 577.83,-372.65 581.6,-378.55"/>
</g>
</g>
</svg>
