<?xml version="1.0" encoding="UTF-8" standalone="no"?>
<!DOCTYPE svg PUBLIC "-//W3C//DTD SVG 1.1//EN"
 "http://www.w3.org/Graphics/SVG/1.1/DTD/svg11.dtd">
<!-- Generated by graphviz version 2.43.0 (0)
 -->
<!-- Title: workflow Pages: 1 -->
<svg width="5569pt" height="269pt"
 viewBox="0.00 0.00 5569.00 269.00" xmlns="http://www.w3.org/2000/svg" xmlns:xlink="http://www.w3.org/1999/xlink">
<g id="graph0" class="graph" transform="scale(1 1) rotate(0) translate(4 265)">
<title>workflow</title>
<polygon fill="white" stroke="transparent" points="-4,4 -4,-265 5565,-265 5565,4 -4,4"/>
<g id="clust1" class="cluster">
<title>cluster_inputs</title>
<polygon fill="#eeeeee" stroke="#818281" stroke-width="2" points="8,-177 8,-253 5553,-253 5553,-177 8,-177"/>
<text text-anchor="middle" x="2780.5" y="-237.8" font-family="Fira Sans" font-size="14.00">Workflow Inputs</text>
</g>
<g id="clust2" class="cluster">
<title>cluster_outputs</title>
<polygon fill="#eeeeee" stroke="#818281" stroke-width="2" points="1923,-8 1923,-84 4276,-84 4276,-8 1923,-8"/>
<text text-anchor="middle" x="3099.5" y="-15.8" font-family="Fira Sans" font-size="14.00">Workflow Outputs</text>
</g>
<!-- trial_id -->
<g id="node1" class="node">
<title>trial_id</title>
<polygon fill="#6fc1b5" stroke="#0f9884" stroke-width="2" points="5483.5,-185.5 5483.5,-221.5 5544.5,-221.5 5544.5,-185.5 5483.5,-185.5"/>
<text text-anchor="middle" x="5514" y="-199.8" font-family="Fira Sans" font-size="14.00">trial_id</text>
</g>
<!-- csmWorkflow -->
<g id="node62" class="node">
<title>csmWorkflow</title>
<polygon fill="#c5e0b4" stroke="#385723" stroke-width="2" points="2983.5,-112.5 2983.5,-148.5 3088.5,-148.5 3088.5,-112.5 2983.5,-112.5"/>
<text text-anchor="middle" x="3036" y="-126.8" font-family="Fira Sans" font-size="14.00">csmWorkflow</text>
</g>
<!-- trial_id&#45;&gt;csmWorkflow -->
<g id="edge1" class="edge">
<title>trial_id&#45;&gt;csmWorkflow</title>
<path fill="none" stroke="#385723" stroke-width="2" d="M5491.8,-185.35C5486.27,-181.95 5480.15,-178.86 5474,-177 5357.09,-141.72 3469.64,-133.07 3098.91,-131.71"/>
<polygon fill="#385723" stroke="#385723" stroke-width="2" points="3098.66,-128.21 3088.64,-131.67 3098.63,-135.21 3098.66,-128.21"/>
</g>
<!-- sensorthingsapi_url -->
<g id="node2" class="node">
<title>sensorthingsapi_url</title>
<polygon fill="#6fc1b5" stroke="#0f9884" stroke-width="2" points="5317,-185.5 5317,-221.5 5465,-221.5 5465,-185.5 5317,-185.5"/>
<text text-anchor="middle" x="5391" y="-199.8" font-family="Fira Sans" font-size="14.00">sensorthingsapi_url</text>
</g>
<!-- sensorthingsapi_url&#45;&gt;csmWorkflow -->
<g id="edge2" class="edge">
<title>sensorthingsapi_url&#45;&gt;csmWorkflow</title>
<path fill="none" stroke="#385723" stroke-width="2" d="M5343.7,-185.49C5332.16,-182.04 5319.76,-178.89 5308,-177 5084.92,-141.22 3442.01,-133.04 3098.76,-131.72"/>
<polygon fill="#385723" stroke="#385723" stroke-width="2" points="3098.52,-128.22 3088.51,-131.68 3098.5,-135.22 3098.52,-128.22"/>
</g>
<!-- ndvi_file -->
<g id="node3" class="node">
<title>ndvi_file</title>
<polygon fill="#6fc1b5" stroke="#0f9884" stroke-width="2" points="5227.5,-185.5 5227.5,-221.5 5298.5,-221.5 5298.5,-185.5 5227.5,-185.5"/>
<text text-anchor="middle" x="5263" y="-199.8" font-family="Fira Sans" font-size="14.00">ndvi_file</text>
</g>
<!-- ndvi_file&#45;&gt;csmWorkflow -->
<g id="edge3" class="edge">
<title>ndvi_file&#45;&gt;csmWorkflow</title>
<path fill="none" stroke="#385723" stroke-width="2" d="M5238.38,-185.35C5232.31,-181.95 5225.63,-178.86 5219,-177 5114.37,-147.7 3445.69,-134.38 3098.84,-131.93"/>
<polygon fill="#385723" stroke="#385723" stroke-width="2" points="3098.75,-128.42 3088.73,-131.85 3098.7,-135.42 3098.75,-128.42"/>
</g>
<!-- sowing_date -->
<g id="node4" class="node">
<title>sowing_date</title>
<polygon fill="#6fc1b5" stroke="#0f9884" stroke-width="2" points="5110.5,-185.5 5110.5,-221.5 5209.5,-221.5 5209.5,-185.5 5110.5,-185.5"/>
<text text-anchor="middle" x="5160" y="-199.8" font-family="Fira Sans" font-size="14.00">sowing_date</text>
</g>
<!-- sowing_date&#45;&gt;csmWorkflow -->
<g id="edge4" class="edge">
<title>sowing_date&#45;&gt;csmWorkflow</title>
<path fill="none" stroke="#385723" stroke-width="2" d="M5127.33,-185.48C5119.25,-182.03 5110.48,-178.88 5102,-177 4902.65,-132.82 3424.06,-131.23 3099.05,-131.42"/>
<polygon fill="#385723" stroke="#385723" stroke-width="2" points="3098.87,-127.92 3088.88,-131.43 3098.88,-134.92 3098.87,-127.92"/>
</g>
<!-- harvest_date -->
<g id="node5" class="node">
<title>harvest_date</title>
<polygon fill="#6fc1b5" stroke="#0f9884" stroke-width="2" points="4991.5,-185.5 4991.5,-221.5 5092.5,-221.5 5092.5,-185.5 4991.5,-185.5"/>
<text text-anchor="middle" x="5042" y="-199.8" font-family="Fira Sans" font-size="14.00">harvest_date</text>
</g>
<!-- harvest_date&#45;&gt;csmWorkflow -->
<g id="edge5" class="edge">
<title>harvest_date&#45;&gt;csmWorkflow</title>
<path fill="none" stroke="#385723" stroke-width="2" d="M5008.15,-185.49C4999.8,-182.04 4990.74,-178.89 4982,-177 4794.7,-136.57 3411.9,-132.06 3098.87,-131.56"/>
<polygon fill="#385723" stroke="#385723" stroke-width="2" points="3098.63,-128.06 3088.62,-131.55 3098.62,-135.06 3098.63,-128.06"/>
</g>
<!-- results_csv -->
<g id="node6" class="node">
<title>results_csv</title>
<polygon fill="#6fc1b5" stroke="#0f9884" stroke-width="2" points="4885,-185.5 4885,-221.5 4973,-221.5 4973,-185.5 4885,-185.5"/>
<text text-anchor="middle" x="4929" y="-199.8" font-family="Fira Sans" font-size="14.00">results_csv</text>
</g>
<!-- results_csv&#45;&gt;csmWorkflow -->
<g id="edge6" class="edge">
<title>results_csv&#45;&gt;csmWorkflow</title>
<path fill="none" stroke="#385723" stroke-width="2" d="M4899.27,-185.5C4891.89,-182.04 4883.84,-178.89 4876,-177 4700.53,-134.69 3401.47,-131.62 3098.87,-131.48"/>
<polygon fill="#385723" stroke="#385723" stroke-width="2" points="3098.53,-127.98 3088.53,-131.48 3098.53,-134.98 3098.53,-127.98"/>
</g>
<!-- visualization_png -->
<g id="node7" class="node">
<title>visualization_png</title>
<polygon fill="#6fc1b5" stroke="#0f9884" stroke-width="2" points="4737,-185.5 4737,-221.5 4867,-221.5 4867,-185.5 4737,-185.5"/>
<text text-anchor="middle" x="4802" y="-199.8" font-family="Fira Sans" font-size="14.00">visualization_png</text>
</g>
<!-- visualization_png&#45;&gt;csmWorkflow -->
<g id="edge7" class="edge">
<title>visualization_png&#45;&gt;csmWorkflow</title>
<path fill="none" stroke="#385723" stroke-width="2" d="M4759.55,-185.4C4749.37,-182 4738.43,-178.89 4728,-177 4565.65,-147.56 3385.79,-134.76 3098.8,-132.06"/>
<polygon fill="#385723" stroke="#385723" stroke-width="2" points="3098.6,-128.56 3088.57,-131.96 3098.54,-135.55 3098.6,-128.56"/>
</g>
<!-- geojson_file -->
<g id="node8" class="node">
<title>geojson_file</title>
<polygon fill="#6fc1b5" stroke="#0f9884" stroke-width="2" points="4623.5,-185.5 4623.5,-221.5 4718.5,-221.5 4718.5,-185.5 4623.5,-185.5"/>
<text text-anchor="middle" x="4671" y="-199.8" font-family="Fira Sans" font-size="14.00">geojson_file</text>
</g>
<!-- geojson_file&#45;&gt;csmWorkflow -->
<g id="edge8" class="edge">
<title>geojson_file&#45;&gt;csmWorkflow</title>
<path fill="none" stroke="#385723" stroke-width="2" d="M4638.61,-185.39C4630.75,-181.99 4622.24,-178.88 4614,-177 4464.8,-142.89 3374.52,-133.66 3099.07,-131.87"/>
<polygon fill="#385723" stroke="#385723" stroke-width="2" points="3098.88,-128.37 3088.86,-131.8 3098.83,-135.37 3098.88,-128.37"/>
</g>
<!-- gs_codes -->
<g id="node9" class="node">
<title>gs_codes</title>
<polygon fill="#6fc1b5" stroke="#0f9884" stroke-width="2" points="4529,-185.5 4529,-221.5 4605,-221.5 4605,-185.5 4529,-185.5"/>
<text text-anchor="middle" x="4567" y="-199.8" font-family="Fira Sans" font-size="14.00">gs_codes</text>
</g>
<!-- gs_codes&#45;&gt;csmWorkflow -->
<g id="edge9" class="edge">
<title>gs_codes&#45;&gt;csmWorkflow</title>
<path fill="none" stroke="#385723" stroke-width="2" d="M4540.57,-185.4C4534.08,-181.99 4526.99,-178.89 4520,-177 4381.64,-139.62 3363.63,-132.85 3098.82,-131.71"/>
<polygon fill="#385723" stroke="#385723" stroke-width="2" points="3098.63,-128.21 3088.61,-131.67 3098.6,-135.21 3098.63,-128.21"/>
</g>
<!-- gs_dates_output -->
<g id="node10" class="node">
<title>gs_dates_output</title>
<polygon fill="#6fc1b5" stroke="#0f9884" stroke-width="2" points="4385.5,-185.5 4385.5,-221.5 4510.5,-221.5 4510.5,-185.5 4385.5,-185.5"/>
<text text-anchor="middle" x="4448" y="-199.8" font-family="Fira Sans" font-size="14.00">gs_dates_output</text>
</g>
<!-- gs_dates_output&#45;&gt;csmWorkflow -->
<g id="edge10" class="edge">
<title>gs_dates_output&#45;&gt;csmWorkflow</title>
<path fill="none" stroke="#385723" stroke-width="2" d="M4407.31,-185.45C4397.54,-182.04 4387.03,-178.92 4377,-177 4127.46,-129.17 3329.45,-129.82 3098.92,-131.05"/>
<polygon fill="#385723" stroke="#385723" stroke-width="2" points="3098.68,-127.55 3088.7,-131.11 3098.71,-134.55 3098.68,-127.55"/>
</g>
<!-- gs_icasa_output -->
<g id="node11" class="node">
<title>gs_icasa_output</title>
<polygon fill="#6fc1b5" stroke="#0f9884" stroke-width="2" points="4246.5,-185.5 4246.5,-221.5 4367.5,-221.5 4367.5,-185.5 4246.5,-185.5"/>
<text text-anchor="middle" x="4307" y="-199.8" font-family="Fira Sans" font-size="14.00">gs_icasa_output</text>
</g>
<!-- gs_icasa_output&#45;&gt;csmWorkflow -->
<g id="edge11" class="edge">
<title>gs_icasa_output&#45;&gt;csmWorkflow</title>
<path fill="none" stroke="#385723" stroke-width="2" d="M4266.89,-185.47C4257.27,-182.07 4246.9,-178.94 4237,-177 4015.9,-133.65 3313.13,-131.06 3098.71,-131.31"/>
<polygon fill="#385723" stroke="#385723" stroke-width="2" points="3098.57,-127.81 3088.58,-131.32 3098.58,-134.81 3098.57,-127.81"/>
</g>
<!-- template_path -->
<g id="node12" class="node">
<title>template_path</title>
<polygon fill="#6fc1b5" stroke="#0f9884" stroke-width="2" points="4116,-185.5 4116,-221.5 4228,-221.5 4228,-185.5 4116,-185.5"/>
<text text-anchor="middle" x="4172" y="-199.8" font-family="Fira Sans" font-size="14.00">template_path</text>
</g>
<!-- template_path&#45;&gt;csmWorkflow -->
<g id="edge12" class="edge">
<title>template_path&#45;&gt;csmWorkflow</title>
<path fill="none" stroke="#385723" stroke-width="2" d="M4134.84,-185.49C4125.9,-182.08 4116.25,-178.95 4107,-177 3912.68,-135.96 3297.94,-131.72 3098.87,-131.45"/>
<polygon fill="#385723" stroke="#385723" stroke-width="2" points="3098.6,-127.95 3088.59,-131.44 3098.59,-134.95 3098.6,-127.95"/>
</g>
<!-- experiment_id -->
<g id="node13" class="node">
<title>experiment_id</title>
<polygon fill="#6fc1b5" stroke="#0f9884" stroke-width="2" points="3986.5,-185.5 3986.5,-221.5 4097.5,-221.5 4097.5,-185.5 3986.5,-185.5"/>
<text text-anchor="middle" x="4042" y="-199.8" font-family="Fira Sans" font-size="14.00">experiment_id</text>
</g>
<!-- experiment_id&#45;&gt;csmWorkflow -->
<g id="edge13" class="edge">
<title>experiment_id&#45;&gt;csmWorkflow</title>
<path fill="none" stroke="#385723" stroke-width="2" d="M4005.09,-185.4C3996.38,-182.04 3987,-178.95 3978,-177 3809.66,-140.47 3281.66,-133.25 3098.95,-131.84"/>
<polygon fill="#385723" stroke="#385723" stroke-width="2" points="3098.74,-128.34 3088.71,-131.76 3098.68,-135.34 3098.74,-128.34"/>
</g>
<!-- field_data_output -->
<g id="node14" class="node">
<title>field_data_output</title>
<polygon fill="#6fc1b5" stroke="#0f9884" stroke-width="2" points="3837.5,-185.5 3837.5,-221.5 3968.5,-221.5 3968.5,-185.5 3837.5,-185.5"/>
<text text-anchor="middle" x="3903" y="-199.8" font-family="Fira Sans" font-size="14.00">field_data_output</text>
</g>
<!-- field_data_output&#45;&gt;csmWorkflow -->
<g id="edge14" class="edge">
<title>field_data_output&#45;&gt;csmWorkflow</title>
<path fill="none" stroke="#385723" stroke-width="2" d="M3859.72,-185.37C3849.77,-182.06 3839.13,-179 3829,-177 3689.66,-149.54 3261.17,-136.81 3099.04,-132.89"/>
<polygon fill="#385723" stroke="#385723" stroke-width="2" points="3098.83,-129.38 3088.75,-132.64 3098.67,-136.38 3098.83,-129.38"/>
</g>
<!-- period -->
<g id="node15" class="node">
<title>period</title>
<polygon fill="#6fc1b5" stroke="#0f9884" stroke-width="2" points="3760.5,-185.5 3760.5,-221.5 3819.5,-221.5 3819.5,-185.5 3760.5,-185.5"/>
<text text-anchor="middle" x="3790" y="-199.8" font-family="Fira Sans" font-size="14.00">period</text>
</g>
<!-- period&#45;&gt;csmWorkflow -->
<g id="edge15" class="edge">
<title>period&#45;&gt;csmWorkflow</title>
<path fill="none" stroke="#385723" stroke-width="2" d="M3767.92,-185.29C3762.64,-181.98 3756.83,-178.94 3751,-177 3630.87,-137.02 3249.67,-131.85 3098.57,-131.41"/>
<polygon fill="#385723" stroke="#385723" stroke-width="2" points="3098.53,-127.91 3088.52,-131.39 3098.51,-134.91 3098.53,-127.91"/>
</g>
<!-- output_format -->
<g id="node16" class="node">
<title>output_format</title>
<polygon fill="#6fc1b5" stroke="#0f9884" stroke-width="2" points="3630,-185.5 3630,-221.5 3742,-221.5 3742,-185.5 3630,-185.5"/>
<text text-anchor="middle" x="3686" y="-199.8" font-family="Fira Sans" font-size="14.00">output_format</text>
</g>
<!-- output_format&#45;&gt;csmWorkflow -->
<g id="edge16" class="edge">
<title>output_format&#45;&gt;csmWorkflow</title>
<path fill="none" stroke="#385723" stroke-width="2" d="M3648.1,-185.47C3639.36,-182.15 3629.98,-179.06 3621,-177 3523.12,-154.52 3229.02,-139.68 3098.99,-134.04"/>
<polygon fill="#385723" stroke="#385723" stroke-width="2" points="3098.94,-130.54 3088.8,-133.61 3098.64,-137.53 3098.94,-130.54"/>
</g>
<!-- production_season_output -->
<g id="node17" class="node">
<title>production_season_output</title>
<polygon fill="#6fc1b5" stroke="#0f9884" stroke-width="2" points="3420,-185.5 3420,-221.5 3612,-221.5 3612,-185.5 3420,-185.5"/>
<text text-anchor="middle" x="3516" y="-199.8" font-family="Fira Sans" font-size="14.00">production_season_output</text>
</g>
<!-- production_season_output&#45;&gt;csmWorkflow -->
<g id="edge17" class="edge">
<title>production_season_output&#45;&gt;csmWorkflow</title>
<path fill="none" stroke="#385723" stroke-width="2" d="M3451,-185.46C3437.82,-182.36 3424.01,-179.36 3411,-177 3302.07,-157.24 3173.74,-143.75 3098.96,-136.86"/>
<polygon fill="#385723" stroke="#385723" stroke-width="2" points="3099.05,-133.35 3088.77,-135.93 3098.41,-140.33 3099.05,-133.35"/>
</g>
<!-- lon -->
<g id="node18" class="node">
<title>lon</title>
<polygon fill="#6fc1b5" stroke="#0f9884" stroke-width="2" points="3348,-185.5 3348,-221.5 3402,-221.5 3402,-185.5 3348,-185.5"/>
<text text-anchor="middle" x="3375" y="-199.8" font-family="Fira Sans" font-size="14.00">lon</text>
</g>
<!-- lon&#45;&gt;csmWorkflow -->
<g id="edge18" class="edge">
<title>lon&#45;&gt;csmWorkflow</title>
<path fill="none" stroke="#385723" stroke-width="2" d="M3354.26,-185.37C3349.48,-182.14 3344.26,-179.12 3339,-177 3260.12,-145.25 3161.61,-135.41 3098.74,-132.5"/>
<polygon fill="#385723" stroke="#385723" stroke-width="2" points="3098.72,-128.99 3088.58,-132.07 3098.42,-135.99 3098.72,-128.99"/>
</g>
<!-- lat -->
<g id="node19" class="node">
<title>lat</title>
<polygon fill="#6fc1b5" stroke="#0f9884" stroke-width="2" points="3276,-185.5 3276,-221.5 3330,-221.5 3330,-185.5 3276,-185.5"/>
<text text-anchor="middle" x="3303" y="-199.8" font-family="Fira Sans" font-size="14.00">lat</text>
</g>
<!-- lat&#45;&gt;csmWorkflow -->
<g id="edge19" class="edge">
<title>lat&#45;&gt;csmWorkflow</title>
<path fill="none" stroke="#385723" stroke-width="2" d="M3281.79,-185.29C3277.13,-182.14 3272.07,-179.17 3267,-177 3212.93,-153.8 3146.64,-142.3 3098.96,-136.68"/>
<polygon fill="#385723" stroke="#385723" stroke-width="2" points="3099.1,-133.18 3088.78,-135.54 3098.32,-140.14 3099.1,-133.18"/>
</g>
<!-- radius -->
<g id="node20" class="node">
<title>radius</title>
<polygon fill="#6fc1b5" stroke="#0f9884" stroke-width="2" points="3200.5,-185.5 3200.5,-221.5 3257.5,-221.5 3257.5,-185.5 3200.5,-185.5"/>
<text text-anchor="middle" x="3229" y="-199.8" font-family="Fira Sans" font-size="14.00">radius</text>
</g>
<!-- radius&#45;&gt;csmWorkflow -->
<g id="edge20" class="edge">
<title>radius&#45;&gt;csmWorkflow</title>
<path fill="none" stroke="#385723" stroke-width="2" d="M3205.94,-185.41C3201.16,-182.34 3196.04,-179.36 3191,-177 3161.81,-163.32 3127.58,-152.75 3098.73,-145.26"/>
<polygon fill="#385723" stroke="#385723" stroke-width="2" points="3099.32,-141.8 3088.76,-142.74 3097.6,-148.58 3099.32,-141.8"/>
</g>
<!-- vars -->
<g id="node21" class="node">
<title>vars</title>
<polygon fill="#6fc1b5" stroke="#0f9884" stroke-width="2" points="3128,-185.5 3128,-221.5 3182,-221.5 3182,-185.5 3128,-185.5"/>
<text text-anchor="middle" x="3155" y="-199.8" font-family="Fira Sans" font-size="14.00">vars</text>
</g>
<!-- vars&#45;&gt;csmWorkflow -->
<g id="edge21" class="edge">
<title>vars&#45;&gt;csmWorkflow</title>
<path fill="none" stroke="#385723" stroke-width="2" d="M3131.64,-185.37C3127.48,-182.49 3123.16,-179.6 3119,-177 3105.98,-168.86 3091.41,-160.6 3078.15,-153.39"/>
<polygon fill="#385723" stroke="#385723" stroke-width="2" points="3079.68,-150.24 3069.22,-148.58 3076.37,-156.41 3079.68,-150.24"/>
</g>
<!-- sensor_data_output -->
<g id="node22" class="node">
<title>sensor_data_output</title>
<polygon fill="#6fc1b5" stroke="#0f9884" stroke-width="2" points="2962.5,-185.5 2962.5,-221.5 3109.5,-221.5 3109.5,-185.5 2962.5,-185.5"/>
<text text-anchor="middle" x="3036" y="-199.8" font-family="Fira Sans" font-size="14.00">sensor_data_output</text>
</g>
<!-- sensor_data_output&#45;&gt;csmWorkflow -->
<g id="edge22" class="edge">
<title>sensor_data_output&#45;&gt;csmWorkflow</title>
<path fill="none" stroke="#385723" stroke-width="2" d="M3036,-185.31C3036,-177.29 3036,-167.55 3036,-158.57"/>
<polygon fill="#385723" stroke="#385723" stroke-width="2" points="3039.5,-158.53 3036,-148.53 3032.5,-158.53 3039.5,-158.53"/>
</g>
<!-- frost_client_id -->
<g id="node23" class="node">
<title>frost_client_id</title>
<polygon fill="#6fc1b5" stroke="#0f9884" stroke-width="2" points="2837.5,-185.5 2837.5,-221.5 2944.5,-221.5 2944.5,-185.5 2837.5,-185.5"/>
<text text-anchor="middle" x="2891" y="-199.8" font-family="Fira Sans" font-size="14.00">frost_client_id</text>
</g>
<!-- frost_client_id&#45;&gt;csmWorkflow -->
<g id="edge23" class="edge">
<title>frost_client_id&#45;&gt;csmWorkflow</title>
<path fill="none" stroke="#385723" stroke-width="2" d="M2925.73,-185.49C2945.58,-175.77 2970.68,-163.49 2991.91,-153.09"/>
<polygon fill="#385723" stroke="#385723" stroke-width="2" points="2993.61,-156.15 3001.05,-148.61 2990.53,-149.87 2993.61,-156.15"/>
</g>
<!-- frost_client_secret -->
<g id="node24" class="node">
<title>frost_client_secret</title>
<polygon fill="#6fc1b5" stroke="#0f9884" stroke-width="2" points="2683,-185.5 2683,-221.5 2819,-221.5 2819,-185.5 2683,-185.5"/>
<text text-anchor="middle" x="2751" y="-199.8" font-family="Fira Sans" font-size="14.00">frost_client_secret</text>
</g>
<!-- frost_client_secret&#45;&gt;csmWorkflow -->
<g id="edge24" class="edge">
<title>frost_client_secret&#45;&gt;csmWorkflow</title>
<path fill="none" stroke="#385723" stroke-width="2" d="M2800.71,-185.43C2810.06,-182.45 2819.79,-179.51 2829,-177 2877.05,-163.9 2932.15,-151.94 2973.41,-143.57"/>
<polygon fill="#385723" stroke="#385723" stroke-width="2" points="2974.21,-146.97 2983.33,-141.57 2972.83,-140.11 2974.21,-146.97"/>
</g>
<!-- frost_username -->
<g id="node25" class="node">
<title>frost_username</title>
<polygon fill="#6fc1b5" stroke="#0f9884" stroke-width="2" points="2545,-185.5 2545,-221.5 2665,-221.5 2665,-185.5 2545,-185.5"/>
<text text-anchor="middle" x="2605" y="-199.8" font-family="Fira Sans" font-size="14.00">frost_username</text>
</g>
<!-- frost_username&#45;&gt;csmWorkflow -->
<g id="edge25" class="edge">
<title>frost_username&#45;&gt;csmWorkflow</title>
<path fill="none" stroke="#385723" stroke-width="2" d="M2646.48,-185.43C2655.44,-182.24 2664.94,-179.21 2674,-177 2777.08,-151.83 2900.25,-140.12 2973.09,-135.03"/>
<polygon fill="#385723" stroke="#385723" stroke-width="2" points="2973.73,-138.49 2983.47,-134.32 2973.25,-131.51 2973.73,-138.49"/>
</g>
<!-- frost_password -->
<g id="node26" class="node">
<title>frost_password</title>
<polygon fill="#6fc1b5" stroke="#0f9884" stroke-width="2" points="2411.5,-185.5 2411.5,-221.5 2526.5,-221.5 2526.5,-185.5 2411.5,-185.5"/>
<text text-anchor="middle" x="2469" y="-199.8" font-family="Fira Sans" font-size="14.00">frost_password</text>
</g>
<!-- frost_password&#45;&gt;csmWorkflow -->
<g id="edge26" class="edge">
<title>frost_password&#45;&gt;csmWorkflow</title>
<path fill="none" stroke="#385723" stroke-width="2" d="M2508.48,-185.44C2517.39,-182.16 2526.91,-179.1 2536,-177 2690.45,-141.29 2877.81,-133.35 2973.36,-131.75"/>
<polygon fill="#385723" stroke="#385723" stroke-width="2" points="2973.49,-135.25 2983.43,-131.6 2973.38,-128.25 2973.49,-135.25"/>
</g>
<!-- frost_user_url -->
<g id="node27" class="node">
<title>frost_user_url</title>
<polygon fill="#6fc1b5" stroke="#0f9884" stroke-width="2" points="2286.5,-185.5 2286.5,-221.5 2393.5,-221.5 2393.5,-185.5 2286.5,-185.5"/>
<text text-anchor="middle" x="2340" y="-199.8" font-family="Fira Sans" font-size="14.00">frost_user_url</text>
</g>
<!-- frost_user_url&#45;&gt;csmWorkflow -->
<g id="edge27" class="edge">
<title>frost_user_url&#45;&gt;csmWorkflow</title>
<path fill="none" stroke="#385723" stroke-width="2" d="M2376.68,-185.42C2385.16,-182.1 2394.26,-179.03 2403,-177 2510.08,-152.13 2834.84,-138.39 2972.86,-133.53"/>
<polygon fill="#385723" stroke="#385723" stroke-width="2" points="2973.39,-137.02 2983.26,-133.17 2973.14,-130.02 2973.39,-137.02"/>
</g>
<!-- sensor_icasa_output -->
<g id="node28" class="node">
<title>sensor_icasa_output</title>
<polygon fill="#6fc1b5" stroke="#0f9884" stroke-width="2" points="2117.5,-185.5 2117.5,-221.5 2268.5,-221.5 2268.5,-185.5 2117.5,-185.5"/>
<text text-anchor="middle" x="2193" y="-199.8" font-family="Fira Sans" font-size="14.00">sensor_icasa_output</text>
</g>
<!-- sensor_icasa_output&#45;&gt;csmWorkflow -->
<g id="edge28" class="edge">
<title>sensor_icasa_output&#45;&gt;csmWorkflow</title>
<path fill="none" stroke="#385723" stroke-width="2" d="M2242.87,-185.44C2254.3,-182.13 2266.47,-179.05 2278,-177 2410.84,-153.42 2815.78,-138.46 2972.82,-133.41"/>
<polygon fill="#385723" stroke="#385723" stroke-width="2" points="2973.37,-136.89 2983.25,-133.08 2973.14,-129.9 2973.37,-136.89"/>
</g>
<!-- nasa_data_output -->
<g id="node29" class="node">
<title>nasa_data_output</title>
<polygon fill="#6fc1b5" stroke="#0f9884" stroke-width="2" points="1966.5,-185.5 1966.5,-221.5 2099.5,-221.5 2099.5,-185.5 1966.5,-185.5"/>
<text text-anchor="middle" x="2033" y="-199.8" font-family="Fira Sans" font-size="14.00">nasa_data_output</text>
</g>
<!-- nasa_data_output&#45;&gt;csmWorkflow -->
<g id="edge29" class="edge">
<title>nasa_data_output&#45;&gt;csmWorkflow</title>
<path fill="none" stroke="#385723" stroke-width="2" d="M2077.06,-185.45C2087.4,-182.08 2098.47,-178.99 2109,-177 2275.3,-145.64 2792.77,-135.11 2973.19,-132.34"/>
<polygon fill="#385723" stroke="#385723" stroke-width="2" points="2973.37,-135.84 2983.31,-132.19 2973.26,-128.84 2973.37,-135.84"/>
</g>
<!-- nasa_icasa_output -->
<g id="node30" class="node">
<title>nasa_icasa_output</title>
<polygon fill="#6fc1b5" stroke="#0f9884" stroke-width="2" points="1811.5,-185.5 1811.5,-221.5 1948.5,-221.5 1948.5,-185.5 1811.5,-185.5"/>
<text text-anchor="middle" x="1880" y="-199.8" font-family="Fira Sans" font-size="14.00">nasa_icasa_output</text>
</g>
<!-- nasa_icasa_output&#45;&gt;csmWorkflow -->
<g id="edge30" class="edge">
<title>nasa_icasa_output&#45;&gt;csmWorkflow</title>
<path fill="none" stroke="#385723" stroke-width="2" d="M1925.24,-185.4C1935.85,-182.04 1947.21,-178.95 1958,-177 2154.91,-141.36 2774.04,-133.52 2973.45,-131.9"/>
<polygon fill="#385723" stroke="#385723" stroke-width="2" points="2973.49,-135.4 2983.47,-131.82 2973.44,-128.4 2973.49,-135.4"/>
</g>
<!-- soil_data_output -->
<g id="node31" class="node">
<title>soil_data_output</title>
<polygon fill="#6fc1b5" stroke="#0f9884" stroke-width="2" points="1668.5,-185.5 1668.5,-221.5 1793.5,-221.5 1793.5,-185.5 1668.5,-185.5"/>
<text text-anchor="middle" x="1731" y="-199.8" font-family="Fira Sans" font-size="14.00">soil_data_output</text>
</g>
<!-- soil_data_output&#45;&gt;csmWorkflow -->
<g id="edge31" class="edge">
<title>soil_data_output&#45;&gt;csmWorkflow</title>
<path fill="none" stroke="#385723" stroke-width="2" d="M1772.29,-185.47C1782.19,-182.06 1792.84,-178.94 1803,-177 2030.72,-133.53 2754.85,-131.04 2973.13,-131.31"/>
<polygon fill="#385723" stroke="#385723" stroke-width="2" points="2973.43,-134.81 2983.44,-131.32 2973.44,-127.81 2973.43,-134.81"/>
</g>
<!-- assembled_icasa_output -->
<g id="node32" class="node">
<title>assembled_icasa_output</title>
<polygon fill="#6fc1b5" stroke="#0f9884" stroke-width="2" points="1475,-185.5 1475,-221.5 1651,-221.5 1651,-185.5 1475,-185.5"/>
<text text-anchor="middle" x="1563" y="-199.8" font-family="Fira Sans" font-size="14.00">assembled_icasa_output</text>
</g>
<!-- assembled_icasa_output&#45;&gt;csmWorkflow -->
<g id="edge32" class="edge">
<title>assembled_icasa_output&#45;&gt;csmWorkflow</title>
<path fill="none" stroke="#385723" stroke-width="2" d="M1619.24,-185.44C1632.49,-182.06 1646.65,-178.95 1660,-177 1918.53,-139.23 2739.04,-132.79 2973.11,-131.71"/>
<polygon fill="#385723" stroke="#385723" stroke-width="2" points="2973.17,-135.21 2983.15,-131.67 2973.14,-128.21 2973.17,-135.21"/>
</g>
<!-- dataset_dssat_output -->
<g id="node33" class="node">
<title>dataset_dssat_output</title>
<polygon fill="#6fc1b5" stroke="#0f9884" stroke-width="2" points="1299.5,-185.5 1299.5,-221.5 1456.5,-221.5 1456.5,-185.5 1299.5,-185.5"/>
<text text-anchor="middle" x="1378" y="-199.8" font-family="Fira Sans" font-size="14.00">dataset_dssat_output</text>
</g>
<!-- dataset_dssat_output&#45;&gt;csmWorkflow -->
<g id="edge33" class="edge">
<title>dataset_dssat_output&#45;&gt;csmWorkflow</title>
<path fill="none" stroke="#385723" stroke-width="2" d="M1428.69,-185.45C1440.79,-182.04 1453.74,-178.92 1466,-177 1763.93,-130.29 2719.04,-130.33 2973.31,-131.2"/>
<polygon fill="#385723" stroke="#385723" stroke-width="2" points="2973.47,-134.7 2983.48,-131.24 2973.49,-127.7 2973.47,-134.7"/>
</g>
<!-- normalized_soil_output -->
<g id="node34" class="node">
<title>normalized_soil_output</title>
<polygon fill="#6fc1b5" stroke="#0f9884" stroke-width="2" points="1111,-185.5 1111,-221.5 1281,-221.5 1281,-185.5 1111,-185.5"/>
<text text-anchor="middle" x="1196" y="-199.8" font-family="Fira Sans" font-size="14.00">normalized_soil_output</text>
</g>
<!-- normalized_soil_output&#45;&gt;csmWorkflow -->
<g id="edge34" class="edge">
<title>normalized_soil_output&#45;&gt;csmWorkflow</title>
<path fill="none" stroke="#385723" stroke-width="2" d="M1250.8,-185.43C1263.85,-182.03 1277.82,-178.91 1291,-177 1625.41,-128.46 2701.4,-129.96 2973.18,-131.15"/>
<polygon fill="#385723" stroke="#385723" stroke-width="2" points="2973.25,-134.65 2983.27,-131.2 2973.28,-127.65 2973.25,-134.65"/>
</g>
<!-- depth_seq -->
<g id="node35" class="node">
<title>depth_seq</title>
<polygon fill="#6fc1b5" stroke="#0f9884" stroke-width="2" points="1007.5,-185.5 1007.5,-221.5 1092.5,-221.5 1092.5,-185.5 1007.5,-185.5"/>
<text text-anchor="middle" x="1050" y="-199.8" font-family="Fira Sans" font-size="14.00">depth_seq</text>
</g>
<!-- depth_seq&#45;&gt;csmWorkflow -->
<g id="edge35" class="edge">
<title>depth_seq&#45;&gt;csmWorkflow</title>
<path fill="none" stroke="#385723" stroke-width="2" d="M1079.13,-185.49C1086.38,-182.04 1094.28,-178.89 1102,-177 1286.88,-131.81 2660.66,-130.97 2972.96,-131.38"/>
<polygon fill="#385723" stroke="#385723" stroke-width="2" points="2973.18,-134.88 2983.19,-131.39 2973.19,-127.88 2973.18,-134.88"/>
</g>
<!-- initial_layers_output -->
<g id="node36" class="node">
<title>initial_layers_output</title>
<polygon fill="#6fc1b5" stroke="#0f9884" stroke-width="2" points="839,-185.5 839,-221.5 989,-221.5 989,-185.5 839,-185.5"/>
<text text-anchor="middle" x="914" y="-199.8" font-family="Fira Sans" font-size="14.00">initial_layers_output</text>
</g>
<!-- initial_layers_output&#45;&gt;csmWorkflow -->
<g id="edge36" class="edge">
<title>initial_layers_output&#45;&gt;csmWorkflow</title>
<path fill="none" stroke="#385723" stroke-width="2" d="M962.92,-185.38C974.6,-181.98 987.13,-178.88 999,-177 1197.74,-145.56 2652.32,-134.06 2973.39,-131.9"/>
<polygon fill="#385723" stroke="#385723" stroke-width="2" points="2973.47,-135.4 2983.45,-131.83 2973.43,-128.4 2973.47,-135.4"/>
</g>
<!-- paw -->
<g id="node37" class="node">
<title>paw</title>
<polygon fill="#6fc1b5" stroke="#0f9884" stroke-width="2" points="767,-185.5 767,-221.5 821,-221.5 821,-185.5 767,-185.5"/>
<text text-anchor="middle" x="794" y="-199.8" font-family="Fira Sans" font-size="14.00">paw</text>
</g>
<!-- paw&#45;&gt;csmWorkflow -->
<g id="edge37" class="edge">
<title>paw&#45;&gt;csmWorkflow</title>
<path fill="none" stroke="#385723" stroke-width="2" d="M813.78,-185.37C818.77,-181.97 824.33,-178.87 830,-177 934.36,-142.59 2624.42,-133.31 2973.3,-131.76"/>
<polygon fill="#385723" stroke="#385723" stroke-width="2" points="2973.48,-135.26 2983.47,-131.71 2973.45,-128.26 2973.48,-135.26"/>
</g>
<!-- total_n -->
<g id="node38" class="node">
<title>total_n</title>
<polygon fill="#6fc1b5" stroke="#0f9884" stroke-width="2" points="687,-185.5 687,-221.5 749,-221.5 749,-185.5 687,-185.5"/>
<text text-anchor="middle" x="718" y="-199.8" font-family="Fira Sans" font-size="14.00">total_n</text>
</g>
<!-- total_n&#45;&gt;csmWorkflow -->
<g id="edge38" class="edge">
<title>total_n&#45;&gt;csmWorkflow</title>
<path fill="none" stroke="#385723" stroke-width="2" d="M740.2,-185.36C745.74,-181.95 751.85,-178.86 758,-177 866.82,-144.08 2617.67,-133.59 2973.28,-131.8"/>
<polygon fill="#385723" stroke="#385723" stroke-width="2" points="2973.41,-135.3 2983.39,-131.74 2973.37,-128.3 2973.41,-135.3"/>
</g>
<!-- treatments -->
<g id="node39" class="node">
<title>treatments</title>
<polygon fill="#6fc1b5" stroke="#0f9884" stroke-width="2" points="579,-185.5 579,-221.5 669,-221.5 669,-185.5 579,-185.5"/>
<text text-anchor="middle" x="624" y="-199.8" font-family="Fira Sans" font-size="14.00">treatments</text>
</g>
<!-- treatments&#45;&gt;csmWorkflow -->
<g id="edge39" class="edge">
<title>treatments&#45;&gt;csmWorkflow</title>
<path fill="none" stroke="#385723" stroke-width="2" d="M654.31,-185.47C661.83,-182.01 670.03,-178.87 678,-177 792.78,-150.1 2610.12,-134.77 2973.18,-131.97"/>
<polygon fill="#385723" stroke="#385723" stroke-width="2" points="2973.27,-135.47 2983.24,-131.89 2973.21,-128.47 2973.27,-135.47"/>
</g>
<!-- output_dir -->
<g id="node40" class="node">
<title>output_dir</title>
<polygon fill="#6fc1b5" stroke="#0f9884" stroke-width="2" points="475,-185.5 475,-221.5 561,-221.5 561,-185.5 475,-185.5"/>
<text text-anchor="middle" x="518" y="-199.8" font-family="Fira Sans" font-size="14.00">output_dir</text>
</g>
<!-- output_dir&#45;&gt;csmWorkflow -->
<g id="edge40" class="edge">
<title>output_dir&#45;&gt;csmWorkflow</title>
<path fill="none" stroke="#385723" stroke-width="2" d="M547.13,-185.46C554.37,-182.01 562.28,-178.87 570,-177 690.16,-147.95 2600.72,-134.28 2973.3,-131.89"/>
<polygon fill="#385723" stroke="#385723" stroke-width="2" points="2973.38,-135.39 2983.36,-131.82 2973.33,-128.39 2973.38,-135.39"/>
</g>
<!-- plot_output_file -->
<g id="node41" class="node">
<title>plot_output_file</title>
<polygon fill="#6fc1b5" stroke="#0f9884" stroke-width="2" points="337.5,-185.5 337.5,-221.5 456.5,-221.5 456.5,-185.5 337.5,-185.5"/>
<text text-anchor="middle" x="397" y="-199.8" font-family="Fira Sans" font-size="14.00">plot_output_file</text>
</g>
<!-- plot_output_file&#45;&gt;csmWorkflow -->
<g id="edge41" class="edge">
<title>plot_output_file&#45;&gt;csmWorkflow</title>
<path fill="none" stroke="#385723" stroke-width="2" d="M436.12,-185.46C445.72,-182.01 456.08,-178.86 466,-177 718.96,-129.44 2603.44,-130.65 2973.16,-131.35"/>
<polygon fill="#385723" stroke="#385723" stroke-width="2" points="2973.4,-134.85 2983.4,-131.37 2973.41,-127.85 2973.4,-134.85"/>
</g>
<!-- plot_treatment_labels -->
<g id="node42" class="node">
<title>plot_treatment_labels</title>
<polygon fill="#6fc1b5" stroke="#0f9884" stroke-width="2" points="160.5,-185.5 160.5,-221.5 319.5,-221.5 319.5,-185.5 160.5,-185.5"/>
<text text-anchor="middle" x="240" y="-199.8" font-family="Fira Sans" font-size="14.00">plot_treatment_labels</text>
</g>
<!-- plot_treatment_labels&#45;&gt;csmWorkflow -->
<g id="edge42" class="edge">
<title>plot_treatment_labels&#45;&gt;csmWorkflow</title>
<path fill="none" stroke="#385723" stroke-width="2" d="M290.79,-185.47C303.16,-182.02 316.44,-178.87 329,-177 597.93,-136.93 2592.27,-132.12 2973.22,-131.57"/>
<polygon fill="#385723" stroke="#385723" stroke-width="2" points="2973.24,-135.07 2983.23,-131.56 2973.23,-128.07 2973.24,-135.07"/>
</g>
<!-- plot_legend_title -->
<g id="node43" class="node">
<title>plot_legend_title</title>
<polygon fill="#6fc1b5" stroke="#0f9884" stroke-width="2" points="16,-185.5 16,-221.5 142,-221.5 142,-185.5 16,-185.5"/>
<text text-anchor="middle" x="79" y="-199.8" font-family="Fira Sans" font-size="14.00">plot_legend_title</text>
</g>
<!-- plot_legend_title&#45;&gt;csmWorkflow -->
<g id="edge43" class="edge">
<title>plot_legend_title&#45;&gt;csmWorkflow</title>
<path fill="none" stroke="#385723" stroke-width="2" d="M120.46,-185.45C130.61,-182 141.56,-178.86 152,-177 438.19,-126.13 2577.74,-130.11 2973.23,-131.29"/>
<polygon fill="#385723" stroke="#385723" stroke-width="2" points="2973.33,-134.79 2983.34,-131.32 2973.35,-127.79 2973.33,-134.79"/>
</g>
<!-- ndvi_timeseries -->
<g id="node44" class="node">
<title>ndvi_timeseries</title>
<polygon fill="#f8cbad" stroke="#823909" stroke-width="2" points="4148,-39.5 4148,-75.5 4268,-75.5 4268,-39.5 4148,-39.5"/>
<text text-anchor="middle" x="4208" y="-53.8" font-family="Fira Sans" font-size="14.00">ndvi_timeseries</text>
</g>
<!-- phenology_results_csv -->
<g id="node45" class="node">
<title>phenology_results_csv</title>
<polygon fill="#f8cbad" stroke="#823909" stroke-width="2" points="3966,-39.5 3966,-75.5 4130,-75.5 4130,-39.5 3966,-39.5"/>
<text text-anchor="middle" x="4048" y="-53.8" font-family="Fira Sans" font-size="14.00">phenology_results_csv</text>
</g>
<!-- phenology_results_png -->
<g id="node46" class="node">
<title>phenology_results_png</title>
<polygon fill="#f8cbad" stroke="#823909" stroke-width="2" points="3778,-39.5 3778,-75.5 3948,-75.5 3948,-39.5 3778,-39.5"/>
<text text-anchor="middle" x="3863" y="-53.8" font-family="Fira Sans" font-size="14.00">phenology_results_png</text>
</g>
<!-- gs_dates -->
<g id="node47" class="node">
<title>gs_dates</title>
<polygon fill="#f8cbad" stroke="#823909" stroke-width="2" points="3686,-39.5 3686,-75.5 3760,-75.5 3760,-39.5 3686,-39.5"/>
<text text-anchor="middle" x="3723" y="-53.8" font-family="Fira Sans" font-size="14.00">gs_dates</text>
</g>
<!-- gs_dates_icasa -->
<g id="node48" class="node">
<title>gs_dates_icasa</title>
<polygon fill="#f8cbad" stroke="#823909" stroke-width="2" points="3556,-39.5 3556,-75.5 3668,-75.5 3668,-39.5 3556,-39.5"/>
<text text-anchor="middle" x="3612" y="-53.8" font-family="Fira Sans" font-size="14.00">gs_dates_icasa</text>
</g>
<!-- field_data -->
<g id="node49" class="node">
<title>field_data</title>
<polygon fill="#f8cbad" stroke="#823909" stroke-width="2" points="3458,-39.5 3458,-75.5 3538,-75.5 3538,-39.5 3458,-39.5"/>
<text text-anchor="middle" x="3498" y="-53.8" font-family="Fira Sans" font-size="14.00">field_data</text>
</g>
<!-- production_season -->
<g id="node50" class="node">
<title>production_season</title>
<polygon fill="#f8cbad" stroke="#823909" stroke-width="2" points="3298.5,-39.5 3298.5,-75.5 3439.5,-75.5 3439.5,-39.5 3298.5,-39.5"/>
<text text-anchor="middle" x="3369" y="-53.8" font-family="Fira Sans" font-size="14.00">production_season</text>
</g>
<!-- sensor_data -->
<g id="node51" class="node">
<title>sensor_data</title>
<polygon fill="#f8cbad" stroke="#823909" stroke-width="2" points="3184,-39.5 3184,-75.5 3280,-75.5 3280,-39.5 3184,-39.5"/>
<text text-anchor="middle" x="3232" y="-53.8" font-family="Fira Sans" font-size="14.00">sensor_data</text>
</g>
<!-- sensor_data_icasa -->
<g id="node52" class="node">
<title>sensor_data_icasa</title>
<polygon fill="#f8cbad" stroke="#823909" stroke-width="2" points="3032,-39.5 3032,-75.5 3166,-75.5 3166,-39.5 3032,-39.5"/>
<text text-anchor="middle" x="3099" y="-53.8" font-family="Fira Sans" font-size="14.00">sensor_data_icasa</text>
</g>
<!-- nasa_data -->
<g id="node53" class="node">
<title>nasa_data</title>
<polygon fill="#f8cbad" stroke="#823909" stroke-width="2" points="2932,-39.5 2932,-75.5 3014,-75.5 3014,-39.5 2932,-39.5"/>
<text text-anchor="middle" x="2973" y="-53.8" font-family="Fira Sans" font-size="14.00">nasa_data</text>
</g>
<!-- nasa_data_icasa -->
<g id="node54" class="node">
<title>nasa_data_icasa</title>
<polygon fill="#f8cbad" stroke="#823909" stroke-width="2" points="2794,-39.5 2794,-75.5 2914,-75.5 2914,-39.5 2794,-39.5"/>
<text text-anchor="middle" x="2854" y="-53.8" font-family="Fira Sans" font-size="14.00">nasa_data_icasa</text>
</g>
<!-- soil_data -->
<g id="node55" class="node">
<title>soil_data</title>
<polygon fill="#f8cbad" stroke="#823909" stroke-width="2" points="2702,-39.5 2702,-75.5 2776,-75.5 2776,-39.5 2702,-39.5"/>
<text text-anchor="middle" x="2739" y="-53.8" font-family="Fira Sans" font-size="14.00">soil_data</text>
</g>
<!-- assembled_icasa -->
<g id="node56" class="node">
<title>assembled_icasa</title>
<polygon fill="#f8cbad" stroke="#823909" stroke-width="2" points="2558.5,-39.5 2558.5,-75.5 2683.5,-75.5 2683.5,-39.5 2558.5,-39.5"/>
<text text-anchor="middle" x="2621" y="-53.8" font-family="Fira Sans" font-size="14.00">assembled_icasa</text>
</g>
<!-- dataset_dssat -->
<g id="node57" class="node">
<title>dataset_dssat</title>
<polygon fill="#f8cbad" stroke="#823909" stroke-width="2" points="2434,-39.5 2434,-75.5 2540,-75.5 2540,-39.5 2434,-39.5"/>
<text text-anchor="middle" x="2487" y="-53.8" font-family="Fira Sans" font-size="14.00">dataset_dssat</text>
</g>
<!-- normalized_soil -->
<g id="node58" class="node">
<title>normalized_soil</title>
<polygon fill="#f8cbad" stroke="#823909" stroke-width="2" points="2296.5,-39.5 2296.5,-75.5 2415.5,-75.5 2415.5,-39.5 2296.5,-39.5"/>
<text text-anchor="middle" x="2356" y="-53.8" font-family="Fira Sans" font-size="14.00">normalized_soil</text>
</g>
<!-- initial_layers -->
<g id="node59" class="node">
<title>initial_layers</title>
<polygon fill="#f8cbad" stroke="#823909" stroke-width="2" points="2179.5,-39.5 2179.5,-75.5 2278.5,-75.5 2278.5,-39.5 2179.5,-39.5"/>
<text text-anchor="middle" x="2229" y="-53.8" font-family="Fira Sans" font-size="14.00">initial_layers</text>
</g>
<!-- simulations_dir -->
<g id="node60" class="node">
<title>simulations_dir</title>
<polygon fill="#f8cbad" stroke="#823909" stroke-width="2" points="2044.5,-39.5 2044.5,-75.5 2161.5,-75.5 2161.5,-39.5 2044.5,-39.5"/>
<text text-anchor="middle" x="2103" y="-53.8" font-family="Fira Sans" font-size="14.00">simulations_dir</text>
</g>
<!-- growth_plot -->
<g id="node61" class="node">
<title>growth_plot</title>
<polygon fill="#f8cbad" stroke="#823909" stroke-width="2" points="1931.5,-39.5 1931.5,-75.5 2026.5,-75.5 2026.5,-39.5 1931.5,-39.5"/>
<text text-anchor="middle" x="1979" y="-53.8" font-family="Fira Sans" font-size="14.00">growth_plot</text>
</g>
<!-- csmWorkflow&#45;&gt;ndvi_timeseries -->
<g id="edge44" class="edge">
<title>csmWorkflow&#45;&gt;ndvi_timeseries</title>
<path fill="none" stroke="#385723" stroke-width="2" d="M3088.81,-129.5C3279.84,-129.16 3934.4,-124.97 4139,-84 4145.56,-82.69 4152.33,-80.84 4158.94,-78.74"/>
<polygon fill="#385723" stroke="#385723" stroke-width="2" points="4160.13,-82.03 4168.48,-75.5 4157.89,-75.4 4160.13,-82.03"/>
</g>
<!-- csmWorkflow&#45;&gt;phenology_results_csv -->
<g id="edge45" class="edge">
<title>csmWorkflow&#45;&gt;phenology_results_csv</title>
<path fill="none" stroke="#385723" stroke-width="2" d="M3088.58,-128.45C3257.94,-124.82 3787.93,-111.51 3957,-84 3966.04,-82.53 3975.46,-80.49 3984.67,-78.19"/>
<polygon fill="#385723" stroke="#385723" stroke-width="2" points="3985.76,-81.53 3994.55,-75.62 3983.99,-74.75 3985.76,-81.53"/>
</g>
<!-- csmWorkflow&#45;&gt;phenology_results_png -->
<g id="edge46" class="edge">
<title>csmWorkflow&#45;&gt;phenology_results_png</title>
<path fill="none" stroke="#385723" stroke-width="2" d="M3088.85,-129.88C3210.01,-129.95 3516.77,-125.6 3769,-84 3778.29,-82.47 3787.98,-80.4 3797.46,-78.09"/>
<polygon fill="#385723" stroke="#385723" stroke-width="2" points="3798.4,-81.47 3807.24,-75.62 3796.69,-74.68 3798.4,-81.47"/>
</g>
<!-- csmWorkflow&#45;&gt;gs_dates -->
<g id="edge47" class="edge">
<title>csmWorkflow&#45;&gt;gs_dates</title>
<path fill="none" stroke="#385723" stroke-width="2" d="M3088.65,-128.69C3221.44,-126.16 3567.24,-116.58 3677,-84 3680.53,-82.95 3684.1,-81.6 3687.59,-80.06"/>
<polygon fill="#385723" stroke="#385723" stroke-width="2" points="3689.17,-83.19 3696.62,-75.66 3686.1,-76.9 3689.17,-83.19"/>
</g>
<!-- csmWorkflow&#45;&gt;gs_dates_icasa -->
<g id="edge48" class="edge">
<title>csmWorkflow&#45;&gt;gs_dates_icasa</title>
<path fill="none" stroke="#385723" stroke-width="2" d="M3088.64,-129.72C3182.18,-129.02 3382.93,-122.65 3547,-84 3552.67,-82.66 3558.5,-80.93 3564.23,-79"/>
<polygon fill="#385723" stroke="#385723" stroke-width="2" points="3565.51,-82.26 3573.74,-75.59 3563.14,-75.67 3565.51,-82.26"/>
</g>
<!-- csmWorkflow&#45;&gt;field_data -->
<g id="edge49" class="edge">
<title>csmWorkflow&#45;&gt;field_data</title>
<path fill="none" stroke="#385723" stroke-width="2" d="M3088.74,-129.85C3168.49,-129.01 3323.72,-122.04 3449,-84 3452.76,-82.86 3456.58,-81.43 3460.33,-79.83"/>
<polygon fill="#385723" stroke="#385723" stroke-width="2" points="3461.88,-82.97 3469.47,-75.58 3458.93,-76.62 3461.88,-82.97"/>
</g>
<!-- csmWorkflow&#45;&gt;production_season -->
<g id="edge50" class="edge">
<title>csmWorkflow&#45;&gt;production_season</title>
<path fill="none" stroke="#385723" stroke-width="2" d="M3088.75,-122.07C3140.23,-114.34 3220.56,-100.98 3289,-84 3295.56,-82.37 3302.37,-80.5 3309.12,-78.52"/>
<polygon fill="#385723" stroke="#385723" stroke-width="2" points="3310.36,-81.8 3318.93,-75.56 3308.34,-75.1 3310.36,-81.8"/>
</g>
<!-- csmWorkflow&#45;&gt;sensor_data -->
<g id="edge51" class="edge">
<title>csmWorkflow&#45;&gt;sensor_data</title>
<path fill="none" stroke="#385723" stroke-width="2" d="M3088.6,-113.71C3114.8,-105.48 3146.81,-94.88 3175,-84 3178.65,-82.59 3182.4,-81.07 3186.16,-79.5"/>
<polygon fill="#385723" stroke="#385723" stroke-width="2" points="3187.63,-82.68 3195.44,-75.53 3184.87,-76.25 3187.63,-82.68"/>
</g>
<!-- csmWorkflow&#45;&gt;sensor_data_icasa -->
<g id="edge52" class="edge">
<title>csmWorkflow&#45;&gt;sensor_data_icasa</title>
<path fill="none" stroke="#385723" stroke-width="2" d="M3051.25,-112.31C3058.99,-103.59 3068.53,-92.84 3077.04,-83.25"/>
<polygon fill="#385723" stroke="#385723" stroke-width="2" points="3079.87,-85.33 3083.89,-75.53 3074.63,-80.69 3079.87,-85.33"/>
</g>
<!-- csmWorkflow&#45;&gt;nasa_data -->
<g id="edge53" class="edge">
<title>csmWorkflow&#45;&gt;nasa_data</title>
<path fill="none" stroke="#385723" stroke-width="2" d="M3020.75,-112.31C3013.01,-103.59 3003.47,-92.84 2994.96,-83.25"/>
<polygon fill="#385723" stroke="#385723" stroke-width="2" points="2997.37,-80.69 2988.11,-75.53 2992.13,-85.33 2997.37,-80.69"/>
</g>
<!-- csmWorkflow&#45;&gt;nasa_data_icasa -->
<g id="edge54" class="edge">
<title>csmWorkflow&#45;&gt;nasa_data_icasa</title>
<path fill="none" stroke="#385723" stroke-width="2" d="M2992.41,-112.49C2966.82,-102.51 2934.29,-89.82 2907.2,-79.26"/>
<polygon fill="#385723" stroke="#385723" stroke-width="2" points="2908.46,-75.99 2897.87,-75.61 2905.91,-82.51 2908.46,-75.99"/>
</g>
<!-- csmWorkflow&#45;&gt;soil_data -->
<g id="edge55" class="edge">
<title>csmWorkflow&#45;&gt;soil_data</title>
<path fill="none" stroke="#385723" stroke-width="2" d="M2983.28,-124.99C2931.58,-119.41 2851.11,-107.59 2785,-84 2781.9,-82.9 2778.77,-81.6 2775.67,-80.18"/>
<polygon fill="#385723" stroke="#385723" stroke-width="2" points="2777.05,-76.96 2766.53,-75.66 2773.94,-83.23 2777.05,-76.96"/>
</g>
<!-- csmWorkflow&#45;&gt;assembled_icasa -->
<g id="edge56" class="edge">
<title>csmWorkflow&#45;&gt;assembled_icasa</title>
<path fill="none" stroke="#385723" stroke-width="2" d="M2983.37,-125.94C2915.51,-120.58 2794.18,-108.35 2693,-84 2686.91,-82.53 2680.61,-80.74 2674.4,-78.79"/>
<polygon fill="#385723" stroke="#385723" stroke-width="2" points="2675.32,-75.41 2664.73,-75.62 2673.14,-82.06 2675.32,-75.41"/>
</g>
<!-- csmWorkflow&#45;&gt;dataset_dssat -->
<g id="edge57" class="edge">
<title>csmWorkflow&#45;&gt;dataset_dssat</title>
<path fill="none" stroke="#385723" stroke-width="2" d="M2983.39,-129.55C2893.33,-128.54 2704.38,-121.61 2550,-84 2544.63,-82.69 2539.11,-81.01 2533.68,-79.13"/>
<polygon fill="#385723" stroke="#385723" stroke-width="2" points="2534.65,-75.75 2524.05,-75.57 2532.22,-82.32 2534.65,-75.75"/>
</g>
<!-- csmWorkflow&#45;&gt;normalized_soil -->
<g id="edge58" class="edge">
<title>csmWorkflow&#45;&gt;normalized_soil</title>
<path fill="none" stroke="#385723" stroke-width="2" d="M2983.26,-127.47C2855.26,-122.22 2530.89,-107.03 2425,-84 2418.78,-82.65 2412.36,-80.85 2406.06,-78.84"/>
<polygon fill="#385723" stroke="#385723" stroke-width="2" points="2406.89,-75.43 2396.3,-75.53 2404.65,-82.06 2406.89,-75.43"/>
</g>
<!-- csmWorkflow&#45;&gt;initial_layers -->
<g id="edge59" class="edge">
<title>csmWorkflow&#45;&gt;initial_layers</title>
<path fill="none" stroke="#385723" stroke-width="2" d="M2983.26,-128.66C2835.61,-125.93 2420.32,-115.59 2288,-84 2282.91,-82.78 2277.7,-81.16 2272.59,-79.31"/>
<polygon fill="#385723" stroke="#385723" stroke-width="2" points="2273.53,-75.92 2262.94,-75.54 2270.98,-82.44 2273.53,-75.92"/>
</g>
<!-- csmWorkflow&#45;&gt;simulations_dir -->
<g id="edge60" class="edge">
<title>csmWorkflow&#45;&gt;simulations_dir</title>
<path fill="none" stroke="#385723" stroke-width="2" d="M2983.4,-128.84C2820.75,-126.45 2327.5,-116.65 2171,-84 2164.76,-82.7 2158.34,-80.92 2152.04,-78.9"/>
<polygon fill="#385723" stroke="#385723" stroke-width="2" points="2152.9,-75.49 2142.31,-75.56 2150.63,-82.11 2152.9,-75.49"/>
</g>
<!-- csmWorkflow&#45;&gt;growth_plot -->
<g id="edge61" class="edge">
<title>csmWorkflow&#45;&gt;growth_plot</title>
<path fill="none" stroke="#385723" stroke-width="2" d="M2983.45,-129.69C2804.3,-129.94 2218.51,-127.33 2036,-84 2030.99,-82.81 2025.87,-81.18 2020.86,-79.32"/>
<polygon fill="#385723" stroke="#385723" stroke-width="2" points="2022,-76.01 2011.42,-75.51 2019.38,-82.5 2022,-76.01"/>
</g>
</g>
</svg>
