<?xml version="1.0" encoding="UTF-8" standalone="no"?>
<!DOCTYPE svg PUBLIC "-//W3C//DTD SVG 1.1//EN"
 "http://www.w3.org/Graphics/SVG/1.1/DTD/svg11.dtd">
<!-- Generated by graphviz version 14.1.2 (0)
 -->
<!-- Title: G Pages: 1 -->
<svg width="1240pt" height="251pt"
 viewBox="0.00 0.00 1240.00 251.00" xmlns="http://www.w3.org/2000/svg" xmlns:xlink="http://www.w3.org/1999/xlink">
<g id="graph0" class="graph" transform="scale(1 1) rotate(0) translate(4 247)">
<title>G</title>
<polygon fill="#eeeeee" stroke="none" points="-4,4 -4,-247 1236,-247 1236,4 -4,4"/>
<g id="clust1" class="cluster">
<title>cluster_inputs</title>
<polygon fill="#eeeeee" stroke="black" stroke-dasharray="5,2" points="8,-157.5 8,-235 1224,-235 1224,-157.5 8,-157.5"/>
<text xml:space="preserve" text-anchor="middle" x="1169.5" y="-164.7" font-family="Times,serif" font-size="14.00">Workflow Inputs</text>
</g>
<g id="clust2" class="cluster">
<title>cluster_outputs</title>
<polygon fill="#eeeeee" stroke="black" stroke-dasharray="5,2" points="78,-8 78,-85.5 976,-85.5 976,-8 78,-8"/>
<text xml:space="preserve" text-anchor="middle" x="917" y="-15.2" font-family="Times,serif" font-size="14.00">Workflow Outputs</text>
</g>
<!-- geojson -->
<g id="node1" class="node">
<title>geojson</title>
<polygon fill="#94ddf4" stroke="black" points="16,-190.5 16,-226.5 74,-226.5 74,-190.5 16,-190.5"/>
<text xml:space="preserve" text-anchor="middle" x="45" y="-203.45" font-family="Times,serif" font-size="14.00">geojson</text>
</g>
<!-- csmWorkflow -->
<g id="node14" class="node">
<title>csmWorkflow</title>
<ellipse fill="none" stroke="black" cx="550" cy="-131.5" rx="64.15" ry="18"/>
<text xml:space="preserve" text-anchor="middle" x="550" y="-126.45" font-family="Times,serif" font-size="14.00">csmWorkflow</text>
</g>
<!-- geojson&#45;&gt;csmWorkflow -->
<g id="edge1" class="edge">
<title>geojson&#45;&gt;csmWorkflow</title>
<path fill="none" stroke="black" d="M53.03,-190.41C59.41,-178.93 69.51,-164.65 83,-157.5 116.61,-139.69 351.26,-134.56 474.61,-133.09"/>
<polygon fill="black" stroke="black" points="474.35,-136.59 484.31,-132.98 474.27,-129.59 474.35,-136.59"/>
</g>
<!-- gs_codes -->
<g id="node2" class="node">
<title>gs_codes</title>
<polygon fill="#94ddf4" stroke="black" points="92.25,-190.5 92.25,-226.5 157.75,-226.5 157.75,-190.5 92.25,-190.5"/>
<text xml:space="preserve" text-anchor="middle" x="125" y="-203.45" font-family="Times,serif" font-size="14.00">gs_codes</text>
</g>
<!-- gs_codes&#45;&gt;csmWorkflow -->
<g id="edge2" class="edge">
<title>gs_codes&#45;&gt;csmWorkflow</title>
<path fill="none" stroke="black" d="M134.33,-190.42C141.61,-178.95 152.84,-164.67 167,-157.5 193.65,-144.01 370.81,-137.15 474.6,-134.26"/>
<polygon fill="black" stroke="black" points="474.54,-137.76 484.44,-133.99 474.35,-130.76 474.54,-137.76"/>
</g>
<!-- gs_scale -->
<g id="node3" class="node">
<title>gs_scale</title>
<polygon fill="#94ddf4" stroke="black" points="176.12,-190.5 176.12,-226.5 237.88,-226.5 237.88,-190.5 176.12,-190.5"/>
<text xml:space="preserve" text-anchor="middle" x="207" y="-203.45" font-family="Times,serif" font-size="14.00">gs_scale</text>
</g>
<!-- gs_scale&#45;&gt;csmWorkflow -->
<g id="edge3" class="edge">
<title>gs_scale&#45;&gt;csmWorkflow</title>
<path fill="none" stroke="black" d="M216.03,-190.02C222.89,-178.68 233.46,-164.71 247,-157.5 285.02,-137.26 397.74,-132.66 474.44,-131.99"/>
<polygon fill="black" stroke="black" points="473.99,-135.5 483.97,-131.93 473.94,-128.5 473.99,-135.5"/>
</g>
<!-- harvest_date -->
<g id="node4" class="node">
<title>harvest_date</title>
<polygon fill="#94ddf4" stroke="black" points="255.88,-190.5 255.88,-226.5 340.12,-226.5 340.12,-190.5 255.88,-190.5"/>
<text xml:space="preserve" text-anchor="middle" x="298" y="-203.45" font-family="Times,serif" font-size="14.00">harvest_date</text>
</g>
<!-- harvest_date&#45;&gt;csmWorkflow -->
<g id="edge4" class="edge">
<title>harvest_date&#45;&gt;csmWorkflow</title>
<path fill="none" stroke="black" d="M310.7,-190.16C319.97,-178.89 333.59,-164.94 349,-157.5 370.99,-146.89 428.27,-140.43 476.08,-136.75"/>
<polygon fill="black" stroke="black" points="476.15,-140.25 485.86,-136.02 475.63,-133.27 476.15,-140.25"/>
</g>
<!-- latitude -->
<g id="node5" class="node">
<title>latitude</title>
<polygon fill="#94ddf4" stroke="black" points="357.75,-190.5 357.75,-226.5 414.25,-226.5 414.25,-190.5 357.75,-190.5"/>
<text xml:space="preserve" text-anchor="middle" x="386" y="-203.45" font-family="Times,serif" font-size="14.00">latitude</text>
</g>
<!-- latitude&#45;&gt;csmWorkflow -->
<g id="edge5" class="edge">
<title>latitude&#45;&gt;csmWorkflow</title>
<path fill="none" stroke="black" d="M394.93,-190.02C401.49,-178.98 411.42,-165.36 424,-157.5 439.58,-147.76 458.19,-141.71 476.26,-137.97"/>
<polygon fill="black" stroke="black" points="476.71,-141.44 485.92,-136.2 475.45,-134.56 476.71,-141.44"/>
</g>
<!-- longitude -->
<g id="node6" class="node">
<title>longitude</title>
<polygon fill="#94ddf4" stroke="black" points="432.5,-190.5 432.5,-226.5 499.5,-226.5 499.5,-190.5 432.5,-190.5"/>
<text xml:space="preserve" text-anchor="middle" x="466" y="-203.45" font-family="Times,serif" font-size="14.00">longitude</text>
</g>
<!-- longitude&#45;&gt;csmWorkflow -->
<g id="edge6" class="edge">
<title>longitude&#45;&gt;csmWorkflow</title>
<path fill="none" stroke="black" d="M478.75,-190.09C486.74,-179.88 497.66,-167.13 509,-157.5 510.23,-156.45 511.51,-155.42 512.82,-154.41"/>
<polygon fill="black" stroke="black" points="514.45,-157.55 520.6,-148.92 510.41,-151.83 514.45,-157.55"/>
</g>
<!-- ndvi_file -->
<g id="node7" class="node">
<title>ndvi_file</title>
<polygon fill="#94ddf4" stroke="black" points="517.62,-190.5 517.62,-226.5 582.38,-226.5 582.38,-190.5 517.62,-190.5"/>
<text xml:space="preserve" text-anchor="middle" x="550" y="-203.45" font-family="Times,serif" font-size="14.00">ndvi_file</text>
</g>
<!-- ndvi_file&#45;&gt;csmWorkflow -->
<g id="edge7" class="edge">
<title>ndvi_file&#45;&gt;csmWorkflow</title>
<path fill="none" stroke="black" d="M550,-190.1C550,-181.49 550,-170.87 550,-161.1"/>
<polygon fill="black" stroke="black" points="553.5,-161.31 550,-151.31 546.5,-161.31 553.5,-161.31"/>
</g>
<!-- results_csv -->
<g id="node8" class="node">
<title>results_csv</title>
<polygon fill="#94ddf4" stroke="black" points="600,-190.5 600,-226.5 676,-226.5 676,-190.5 600,-190.5"/>
<text xml:space="preserve" text-anchor="middle" x="638" y="-203.45" font-family="Times,serif" font-size="14.00">results_csv</text>
</g>
<!-- results_csv&#45;&gt;csmWorkflow -->
<g id="edge8" class="edge">
<title>results_csv&#45;&gt;csmWorkflow</title>
<path fill="none" stroke="black" d="M623.79,-190.18C614.96,-180 603.02,-167.26 591,-157.5 589.71,-156.45 588.36,-155.41 586.99,-154.39"/>
<polygon fill="black" stroke="black" points="589.07,-151.57 578.85,-148.78 585.1,-157.33 589.07,-151.57"/>
</g>
<!-- season_file -->
<g id="node9" class="node">
<title>season_file</title>
<polygon fill="#94ddf4" stroke="black" points="693.62,-190.5 693.62,-226.5 770.38,-226.5 770.38,-190.5 693.62,-190.5"/>
<text xml:space="preserve" text-anchor="middle" x="732" y="-203.45" font-family="Times,serif" font-size="14.00">season_file</text>
</g>
<!-- season_file&#45;&gt;csmWorkflow -->
<g id="edge9" class="edge">
<title>season_file&#45;&gt;csmWorkflow</title>
<path fill="none" stroke="black" d="M720.45,-190.45C711.96,-179.29 699.43,-165.38 685,-157.5 666.47,-147.38 644.59,-141.27 623.91,-137.61"/>
<polygon fill="black" stroke="black" points="624.49,-134.16 614.06,-136.05 623.39,-141.07 624.49,-134.16"/>
</g>
<!-- sensorthingsapi_url -->
<g id="node10" class="node">
<title>sensorthingsapi_url</title>
<polygon fill="#94ddf4" stroke="black" points="788.12,-190.5 788.12,-226.5 909.88,-226.5 909.88,-190.5 788.12,-190.5"/>
<text xml:space="preserve" text-anchor="middle" x="849" y="-203.45" font-family="Times,serif" font-size="14.00">sensorthingsapi_url</text>
</g>
<!-- sensorthingsapi_url&#45;&gt;csmWorkflow -->
<g id="edge10" class="edge">
<title>sensorthingsapi_url&#45;&gt;csmWorkflow</title>
<path fill="none" stroke="black" d="M830.37,-190.11C817.09,-178.8 798.26,-164.85 779,-157.5 751.51,-147.01 679.99,-140.32 624.13,-136.53"/>
<polygon fill="black" stroke="black" points="624.54,-133.05 614.33,-135.89 624.08,-140.03 624.54,-133.05"/>
</g>
<!-- sowing_date -->
<g id="node11" class="node">
<title>sowing_date</title>
<polygon fill="#94ddf4" stroke="black" points="927.88,-190.5 927.88,-226.5 1012.12,-226.5 1012.12,-190.5 927.88,-190.5"/>
<text xml:space="preserve" text-anchor="middle" x="970" y="-203.45" font-family="Times,serif" font-size="14.00">sowing_date</text>
</g>
<!-- sowing_date&#45;&gt;csmWorkflow -->
<g id="edge11" class="edge">
<title>sowing_date&#45;&gt;csmWorkflow</title>
<path fill="none" stroke="black" d="M957.83,-190.38C948.61,-178.89 934.84,-164.6 919,-157.5 868.38,-134.8 717.98,-131.35 625.56,-131.51"/>
<polygon fill="black" stroke="black" points="625.82,-128.01 615.83,-131.54 625.84,-135.01 625.82,-128.01"/>
</g>
<!-- trial_id -->
<g id="node12" class="node">
<title>trial_id</title>
<polygon fill="#94ddf4" stroke="black" points="1030.5,-190.5 1030.5,-226.5 1085.5,-226.5 1085.5,-190.5 1030.5,-190.5"/>
<text xml:space="preserve" text-anchor="middle" x="1058" y="-203.45" font-family="Times,serif" font-size="14.00">trial_id</text>
</g>
<!-- trial_id&#45;&gt;csmWorkflow -->
<g id="edge12" class="edge">
<title>trial_id&#45;&gt;csmWorkflow</title>
<path fill="none" stroke="black" d="M1050.3,-190.42C1044.13,-178.94 1034.32,-164.66 1021,-157.5 987.17,-139.31 749.89,-134.35 625.58,-133"/>
<polygon fill="black" stroke="black" points="625.82,-129.51 615.79,-132.9 625.75,-136.51 625.82,-129.51"/>
</g>
<!-- visualization_png -->
<g id="node13" class="node">
<title>visualization_png</title>
<polygon fill="#94ddf4" stroke="black" points="1104,-190.5 1104,-226.5 1216,-226.5 1216,-190.5 1104,-190.5"/>
<text xml:space="preserve" text-anchor="middle" x="1160" y="-203.45" font-family="Times,serif" font-size="14.00">visualization_png</text>
</g>
<!-- visualization_png&#45;&gt;csmWorkflow -->
<g id="edge13" class="edge">
<title>visualization_png&#45;&gt;csmWorkflow</title>
<path fill="none" stroke="black" d="M1143.59,-190.22C1131.4,-178.66 1113.72,-164.35 1095,-157.5 1052.15,-141.82 764.98,-135.58 625.61,-133.45"/>
<polygon fill="black" stroke="black" points="625.78,-129.96 615.73,-133.31 625.67,-136.95 625.78,-129.96"/>
</g>
<!-- growth_stage_dates -->
<g id="node15" class="node">
<title>growth_stage_dates</title>
<polygon fill="#94ddf4" stroke="black" points="86.38,-41 86.38,-77 209.62,-77 209.62,-41 86.38,-41"/>
<text xml:space="preserve" text-anchor="middle" x="148" y="-53.95" font-family="Times,serif" font-size="14.00">growth_stage_dates</text>
</g>
<!-- csmWorkflow&#45;&gt;growth_stage_dates -->
<g id="edge14" class="edge">
<title>csmWorkflow&#45;&gt;growth_stage_dates</title>
<path fill="none" stroke="black" d="M488.58,-126.03C421.58,-120.25 311.53,-108.14 219,-85.5 213.57,-84.17 207.98,-82.58 202.44,-80.85"/>
<polygon fill="black" stroke="black" points="203.9,-77.64 193.31,-77.84 201.72,-84.29 203.9,-77.64"/>
</g>
<!-- integrated_dataset -->
<g id="node16" class="node">
<title>integrated_dataset</title>
<polygon fill="#94ddf4" stroke="black" points="227.88,-41 227.88,-77 342.12,-77 342.12,-41 227.88,-41"/>
<text xml:space="preserve" text-anchor="middle" x="285" y="-53.95" font-family="Times,serif" font-size="14.00">integrated_dataset</text>
</g>
<!-- csmWorkflow&#45;&gt;integrated_dataset -->
<g id="edge15" class="edge">
<title>csmWorkflow&#45;&gt;integrated_dataset</title>
<path fill="none" stroke="black" d="M497.5,-120.81C457.06,-112.82 399.96,-100.41 351,-85.5 346.76,-84.21 342.4,-82.77 338.04,-81.26"/>
<polygon fill="black" stroke="black" points="339.3,-78 328.71,-77.9 336.93,-84.58 339.3,-78"/>
</g>
<!-- ndvi_timeseries -->
<g id="node17" class="node">
<title>ndvi_timeseries</title>
<polygon fill="#94ddf4" stroke="black" points="359.88,-41 359.88,-77 462.12,-77 462.12,-41 359.88,-41"/>
<text xml:space="preserve" text-anchor="middle" x="411" y="-53.95" font-family="Times,serif" font-size="14.00">ndvi_timeseries</text>
</g>
<!-- csmWorkflow&#45;&gt;ndvi_timeseries -->
<g id="edge16" class="edge">
<title>csmWorkflow&#45;&gt;ndvi_timeseries</title>
<path fill="none" stroke="black" d="M519.84,-115.2C500.9,-105.6 476.15,-93.04 455.04,-82.34"/>
<polygon fill="black" stroke="black" points="456.86,-79.34 446.36,-77.93 453.69,-85.58 456.86,-79.34"/>
</g>
<!-- phenology_results_csv -->
<g id="node18" class="node">
<title>phenology_results_csv</title>
<polygon fill="#94ddf4" stroke="black" points="480.12,-41 480.12,-77 619.88,-77 619.88,-41 480.12,-41"/>
<text xml:space="preserve" text-anchor="middle" x="550" y="-53.95" font-family="Times,serif" font-size="14.00">phenology_results_csv</text>
</g>
<!-- csmWorkflow&#45;&gt;phenology_results_csv -->
<g id="edge17" class="edge">
<title>csmWorkflow&#45;&gt;phenology_results_csv</title>
<path fill="none" stroke="black" d="M550,-113.07C550,-105.73 550,-96.99 550,-88.74"/>
<polygon fill="black" stroke="black" points="553.5,-88.74 550,-78.74 546.5,-88.74 553.5,-88.74"/>
</g>
<!-- phenology_results_png -->
<g id="node19" class="node">
<title>phenology_results_png</title>
<polygon fill="#94ddf4" stroke="black" points="638,-41 638,-77 780,-77 780,-41 638,-41"/>
<text xml:space="preserve" text-anchor="middle" x="709" y="-53.95" font-family="Times,serif" font-size="14.00">phenology_results_png</text>
</g>
<!-- csmWorkflow&#45;&gt;phenology_results_png -->
<g id="edge18" class="edge">
<title>csmWorkflow&#45;&gt;phenology_results_png</title>
<path fill="none" stroke="black" d="M583.33,-115.72C605.32,-105.97 634.53,-93.02 659.25,-82.06"/>
<polygon fill="black" stroke="black" points="660.43,-85.37 668.15,-78.11 657.59,-78.97 660.43,-85.37"/>
</g>
<!-- soil_data -->
<g id="node20" class="node">
<title>soil_data</title>
<polygon fill="#94ddf4" stroke="black" points="797.62,-41 797.62,-77 862.38,-77 862.38,-41 797.62,-41"/>
<text xml:space="preserve" text-anchor="middle" x="830" y="-53.95" font-family="Times,serif" font-size="14.00">soil_data</text>
</g>
<!-- csmWorkflow&#45;&gt;soil_data -->
<g id="edge19" class="edge">
<title>csmWorkflow&#45;&gt;soil_data</title>
<path fill="none" stroke="black" d="M610.88,-125.31C660.23,-119.63 730.87,-108.13 789,-85.5 791.05,-84.7 793.11,-83.8 795.16,-82.82"/>
<polygon fill="black" stroke="black" points="796.68,-85.98 803.85,-78.17 793.38,-79.81 796.68,-85.98"/>
</g>
<!-- weather_data -->
<g id="node21" class="node">
<title>weather_data</title>
<polygon fill="#94ddf4" stroke="black" points="880,-41 880,-77 968,-77 968,-41 880,-41"/>
<text xml:space="preserve" text-anchor="middle" x="924" y="-53.95" font-family="Times,serif" font-size="14.00">weather_data</text>
</g>
<!-- csmWorkflow&#45;&gt;weather_data -->
<g id="edge20" class="edge">
<title>csmWorkflow&#45;&gt;weather_data</title>
<path fill="none" stroke="black" d="M612.76,-127.43C678.38,-122.91 783.74,-111.91 871,-85.5 874.47,-84.45 878,-83.2 881.5,-81.83"/>
<polygon fill="black" stroke="black" points="882.62,-85.15 890.45,-78.01 879.88,-78.71 882.62,-85.15"/>
</g>
</g>
</svg>
